<svg xmlns="http://www.w3.org/2000/svg" class="position-relative position-md-absolute right-n8 right-lg-8 top-lg-3" viewBox="0 0 518.6 406.73"><g data-name="Layer 2"><g id="Layer_5" data-name="Layer 5"><ellipse style="fill:#cacfd6" cx="383.17" cy="369.46" rx="135.42" ry="16.07"/><path style="fill:#cacfd6" d="M 37.2 399.86 c 0 2.37 -5.37 3.88 -11.75 4.2 c -0.8 1.61 -8 2.67 -11 2.67 C 4.83 406.73 1 405 1 401.56 s 7.82 -6.2 17.46 -6.2 S 37.2 396.44 37.2 399.86 Z"/><path style="fill:#ffd33d" d="M 143.92 281.81 c 1.81 9.57 6.21 49.92 6.47 56.9 s 8.53 9.05 14.74 7.76 s 12 -8.33 12.4 -11.38 s -14.89 -45.84 -15.83 -51.72 S 143.92 281.81 143.92 281.81 Z"/><path style="fill:#f9c513" d="M 161.7 283.37 a 2.85 2.85 0 0 0 -1.25 -1.89 c -3.72 7.66 3.41 23.7 4.1 30.94 c 0.5 5.19 3.64 7.34 4.91 11.94 c 1 3.66 -0.55 6.28 0.94 10 a 31.71 31.71 0 0 0 3.88 6.26 c 1.86 -2.07 3.09 -4.19 3.25 -5.54 C 177.89 332 162.64 289.25 161.7 283.37 Z"/><path style="fill:#ffdf5d" d="M 153.38 344.41 a 11.86 11.86 0 0 0 5 2.12 c -0.48 -4.14 -1 -8.27 -1.35 -12.43 c -0.64 -7.93 -2.45 -14.05 -4.37 -21.63 c -2.28 -9.06 1.28 -22.79 -5.76 -29.84 a 2.45 2.45 0 0 1 -0.72 -1.33 l -0.92 0.2 C 149.47 302.17 150.89 323.38 153.38 344.41 Z"/><path style="fill:#dbab09" d="M 159 293 a 19.71 19.71 0 0 0 4.63 -2.76 a 69.71 69.71 0 0 1 -1.91 -6.91 c -0.95 -5.89 -17.78 -1.56 -17.78 -1.56 c 0.45 2.37 1.06 6.62 1.72 11.77 C 150 293.59 154.58 294.86 159 293 Z"/><path style="fill:#dbab09;stroke:#ffea7f;stroke-miterlimit:10;stroke-width:2.5px" d="M 83.21 191.25 c -1.41 0.23 -10.64 -3.83 -14.89 12.37 s 19.51 51.52 43.93 66.81 c 24.66 15.43 40.79 19.51 46.48 15.73 c 5.1 -8.31 4.88 -14 4.88 -14 s -34 -14.65 -51.68 -30.48 C 93.52 225.21 83.21 191.25 83.21 191.25 Z"/><path style="fill:#b08800" d="M 110.23 258.74 c 14.48 11.6 35.06 22.76 53.38 22.74 c 3.62 -6.92 0 -9.34 0 -9.34 s -34 -14.65 -51.68 -30.48 c -18.41 -16.45 -28.72 -50.41 -28.72 -50.41 c -1 0.17 -6.12 -1.9 -10.47 3 C 70.82 220.26 91.37 243.62 110.23 258.74 Z"/><path style="fill:none;stroke:#0366d6;stroke-miterlimit:10;stroke-width:3px" d="M 192.9 23.26 s -57.09 34.68 -50.3 91.31 c 6 49.64 36.15 66.44 46.89 77.58 c 3.08 6.49 -0.7 19.08 9.17 26.63 s 32.14 13.23 61.56 0.51 s 56.06 -29.82 67.6 -54.47"/><path style="fill:none;stroke:#0366d6;stroke-miterlimit:10;stroke-width:3px" d="M 202 52.3 s -10.83 -9.67 -8.84 -37.39 a 2.22 2.22 0 0 1 1.1 -1.76 c 23.2 -13.26 49 -10.74 70.16 3.37"/><path style="fill:none;stroke:#0366d6;stroke-miterlimit:10;stroke-width:3px" d="M 236.06 5.22 C 262.59 -4 309.23 1.88 337.36 46.34 c 24.65 39 14.43 77.55 8.32 98.32"/><path style="fill:none;stroke:#0366d6;stroke-miterlimit:10;stroke-width:3px" d="M 203.93 19.65 s 16.43 0 26.13 6.68 c 11.74 8.09 16.16 20.8 16.16 20.8"/><path style="fill:none;stroke:#0366d6;stroke-miterlimit:10;stroke-width:3px" d="M 148.76 74.46 s -26.39 9.14 -32.15 27.43 c 7 11.53 21.41 22 27.49 22.16"/><path style="fill:none;stroke:#0366d6;stroke-miterlimit:10;stroke-width:3px" d="M 142.48 113.44 s 3.61 19 22.59 17.05 c 28.31 -7.16 29.24 -57.72 68.06 -56 c 37.09 1.62 42.8 51.75 47.11 65.77 c 3 9.78 16.49 8 22.51 11.73 c 10.11 6.35 10.11 29.3 -8.74 49.35"/><path style="fill:none;stroke:#0366d6;stroke-miterlimit:10;stroke-width:3px" d="M 332.09 156.9 s 15 82.09 14.35 93.44"/><path style="fill:none;stroke:#0366d6;stroke-miterlimit:10;stroke-width:3px" d="M 370.63 245.84 s -29.95 -4.67 -38.54 22.2 s 15.19 42.07 27.64 48.29 c 6.55 3.28 25.37 10.51 28.26 7.79 c 5.43 -7.16 -3.68 -24.71 -0.59 -42.84 c 0.78 -4.54 6 -13.45 6 -17 c -13.88 -42.95 -40.28 -125.12 -59.87 -129.63 c -7.52 -1.73 -5.66 16.81 -5.66 16.81"/><path style="fill:none;stroke:#0366d6;stroke-miterlimit:10;stroke-width:3px" d="M 317 181.44 s 3.88 25.34 13.06 42.32 s 16.43 26.58 16.43 26.58"/><path style="fill:none;stroke:#0366d6;stroke-miterlimit:10;stroke-width:3px" d="M 321.17 176.08 s 7.46 25.2 13.42 34.37 a 145.35 145.35 0 0 1 9.29 16.36"/><path style="fill:none;stroke:#0366d6;stroke-miterlimit:10;stroke-width:3px" d="M 320.14 196.63 s -1.83 42.27 2.64 49.62"/><path style="fill:none;stroke:#0366d6;stroke-miterlimit:10;stroke-width:3px" d="M 329.55 246.25 s -26.16 1.83 -27.53 26.61 S 317 301.31 317 301.31 s -2.57 12.39 4.33 13.31 s 5.8 -16.72 6.54 -20.77 a 8.56 8.56 0 0 1 3.88 -5.43"/><path style="fill:none;stroke:#0366d6;stroke-miterlimit:10;stroke-width:3px" d="M 371.09 199.22 s 29.15 15.41 56 23.24 s 28.14 23.45 28.78 31.15 s -4.43 27.15 -44.56 50.17"/><path style="fill:none;stroke:#0366d6;stroke-miterlimit:10;stroke-width:3px" d="M 327.61 308 s 4.5 17.47 8 22.9"/><path style="fill:none;stroke:#0366d6;stroke-miterlimit:10;stroke-width:3px" d="M 359.73 316.33 s 5 21.14 9.64 27"/><path style="fill:none;stroke:#0366d6;stroke-miterlimit:10;stroke-width:3px" d="M 346.8 329.59 a 41.34 41.34 0 0 0 -14.71 2.83 s -16.35 6.6 -19.23 27.95"/><path style="fill:none;stroke:#0366d6;stroke-miterlimit:10;stroke-width:3px" d="M 313.56 356.51 s -13.67 -2 -14.45 3.86 s 0.47 8.93 22.17 10.1 s 28.29 0 28.29 0"/><path style="fill:none;stroke:#0366d6;stroke-miterlimit:10;stroke-width:3px" d="M 403.67 341.35 a 57.23 57.23 0 0 0 -19.94 -0.39 c -34.16 5.05 -34.16 27.56 -34.16 27.56 s -5.69 7.77 -0.77 12.43 a 159 159 0 0 0 61.33 3.88 c 33 -4.66 38 -9.45 37.65 -13.85 s -7.93 -5.9 -7.93 -5.9 s -2.4 -10.22 -19.23 -40.36 s -11.41 -44.27 -11.41 -44.27"/><path style="fill:none;stroke:#0366d6;stroke-miterlimit:10;stroke-width:3px" d="M 353.51 382.15 s 2.8 -12.65 11 -12.65 s 29.87 17.38 40.49 15.95"/><path style="fill:none;stroke:#0366d6;stroke-miterlimit:10;stroke-width:3px" d="M 309.49 189.18 s -30.69 37.39 -47.69 50.94 c -15.05 12 -60.2 33.28 -84.27 32"/><path style="fill:none;stroke:#0366d6;stroke-miterlimit:10;stroke-width:3px" d="M 187.77 285.77 s 0.78 -8.41 -10.24 -13.69"/><path style="fill:none;stroke:#0366d6;stroke-miterlimit:10;stroke-width:3px" d="M 191.91 315.31 c 7.18 -4.25 15.13 -11.53 13.18 -18.83 c -3.16 -11.8 -23.24 -13.83 -30.65 -10.71 c -9.22 3.89 -10.83 10.72 -28.8 7.81"/><path style="fill:none;stroke:#0366d6;stroke-miterlimit:10;stroke-width:3px" d="M 127.16 280.45 s -9.9 30.5 5.92 45.45 c 16.14 15.27 61.21 20.63 61.2 -27.57"/><path style="fill:none;stroke:#0366d6;stroke-miterlimit:10;stroke-width:3px" d="M 175.32 198.57 c 5.76 -0.65 15.5 -0.65 15.5 -0.65"/><line style="fill:none;stroke:#0366d6;stroke-miterlimit:10;stroke-width:3px" x1="180.45" y1="208.08" x2="190.82" y2="202.95"/><path style="fill:none;stroke:#0366d6;stroke-miterlimit:10;stroke-width:3px" d="M 295.63 139.3 c 7.55 -12.7 22.25 -31.34 32 -37.48"/><path style="fill:none;stroke:#0366d6;stroke-miterlimit:10;stroke-width:3px" d="M 305.37 142.27 c 5.29 -4.87 15.8 -14.22 35.78 -22.06"/><path style="fill:none;stroke:#0366d6;stroke-miterlimit:10;stroke-width:3px" d="M 186.69 325.8 c 51.66 -20.24 113.43 -76.49 134.25 -123.21"/><ellipse style="fill:none;stroke:#0366d6;stroke-miterlimit:10;stroke-width:3px" transform="translate(-117.06 194.69) rotate(-36.37)" cx="237.8" cy="275.53" rx="27.12" ry="8.66"/><ellipse style="fill:none;stroke:#0366d6;stroke-miterlimit:10;stroke-width:3px" transform="translate(-76.62 305.08) rotate(-50.24)" cx="287" cy="234.24" rx="22.62" ry="5.51"/><ellipse style="fill:none;stroke:#0366d6;stroke-miterlimit:10;stroke-width:3px" transform="translate(-26.64 33.29) rotate(-8.48)" cx="211.18" cy="196.36" rx="6.49" ry="3.48"/><path style="fill:#79b8ff" d="M 81.8 191.48 S 77.29 216.79 106.89 247 c 17.77 18.13 38.66 26.73 55.18 28.42 c 2.36 -10.8 8.36 -32.57 -41.26 -70 C 98.2 188.35 81.8 191.48 81.8 191.48 Z"/><path style="fill:#c8e1ff" d="M 113.34 233.44 a 126.89 126.89 0 0 1 -17.09 -39.58 a 50.66 50.66 0 0 0 -5.58 -1.08 c 1 25 18.7 45.33 32.52 66.28 c 2.2 1.39 4.4 2.63 6.61 3.8 A 243.42 243.42 0 0 0 113.34 233.44 Z"/><path style="fill:#2188ff" d="M 87.23 191.32 a 24.34 24.34 0 0 0 -5.43 0.16 s -4.51 25.3 25.09 55.51 c 1.29 1.32 2.61 2.57 3.93 3.79 C 99.22 232.1 87.16 213.47 87.23 191.32 Z"/><path style="fill:#daedff" d="M 153.93 254.73 c -5 -8.36 -5.32 -18.19 -10.2 -26.44 c -7.84 -13.25 -22.34 -20 -29.67 -33.46 c -1.32 -0.49 -2.61 -0.93 -3.83 -1.28 c 6.64 16 24.93 23.35 31.59 39.39 c 3.86 9.29 5.26 19 10.11 28 a 119.75 119.75 0 0 0 7.1 11.4 c 0.9 0.29 1.78 0.54 2.67 0.8 A 87.18 87.18 0 0 0 153.93 254.73 Z"/><path style="fill:#ffea7f" d="M 68.32 203.62 l 2.8 -13.2 L 96.3 170.55 s 36.38 -3.91 65.6 30.76 c 25.47 30.22 24.58 44.25 25.64 58 c 0 0 -18.72 24.65 -29.89 28.26 c 7.4 -22 10.3 -34.8 -22.44 -66.09 S 77.83 185.18 68.32 203.62 Z"/><path style="fill:#ffdf5d" d="M 178.75 225.08 c 0.47 10.69 2.66 21.7 -2.37 31.37 c -3.59 6.91 -9.84 11.23 -12.22 19 c -1.08 3.53 -1.47 7.08 -2.82 10.32 c 11.17 -6.71 26.2 -26.5 26.2 -26.5 C 186.81 249.78 187 240.13 178.75 225.08 Z"/><path style="fill:none;stroke:#0366d6;stroke-miterlimit:10;stroke-width:3px" d="M 389.9 253.67 s 4.18 -5.22 9.62 -7.42"/><path style="fill:#fff5b1" d="M 159.4 221.29 c -7.51 -13 -18.33 -25.17 -31.76 -32.3 s -29.35 -9.27 -44.5 -8.05 l -5.23 4.13 a 51.11 51.11 0 0 1 17.74 -0.36 c 9.76 1.31 20.25 4.38 28.34 10.19 c 11.72 8.42 20.29 20.47 29.33 31.5 c 8.06 9.83 14.91 21 16.74 33.83 a 74.77 74.77 0 0 1 0 18.67 c 2 -1.84 3.91 -3.81 5.74 -5.78 C 173.39 255 168.53 237.16 159.4 221.29 Z"/><path style="fill:none;stroke:#0366d6;stroke-linecap:round;stroke-miterlimit:10;stroke-width:3px" d="M 320.08 108 a 48.4 48.4 0 0 1 7.53 -6.17"/><path style="fill:none;stroke:#0366d6;stroke-linecap:round;stroke-miterlimit:10;stroke-width:3px" d="M 330.79 124.79 c 3.38 -1.68 6.85 -3.2 10.36 -4.58"/><path style="fill:none;stroke:#0366d6;stroke-linecap:round;stroke-miterlimit:10;stroke-width:3px" d="M 175.32 198.57 c 1.86 -0.2 3.72 -0.32 5.59 -0.41"/><path style="fill:none;stroke:#0366d6;stroke-linecap:round;stroke-miterlimit:10;stroke-width:3px" d="M 180.45 208.08 l 3.65 -1.8"/><ellipse style="fill:#0366d6" cx="18.39" cy="393.7" rx="11.22" ry="6.17"/><path style="fill:none;stroke:#0366d6;stroke-miterlimit:10;stroke-width:2px" d="M 1 401.38 c 0.45 -3.84 5.43 -5.54 9 -5.53"/><path style="fill:none;stroke:#0366d6;stroke-miterlimit:10;stroke-width:2px" d="M 21.25 398.3 s 4.54 0.9 4.2 7"/><path style="fill:none;stroke:#0366d6;stroke-miterlimit:10;stroke-width:2px" d="M 26.67 395.36 a 10.33 10.33 0 0 1 5.14 1.7 a 7.12 7.12 0 0 1 3 4.74"/><path style="fill:none;stroke:#0366d6;stroke-miterlimit:10;stroke-width:2px" d="M 28.26 392.65 s 1.13 -1.69 5.47 -1.41 a 7.41 7.41 0 0 1 6.05 4.12"/><path style="fill:none;stroke:#0366d6;stroke-miterlimit:10;stroke-width:2px" d="M 2.93 393.7 a 9.52 9.52 0 0 1 4.24 -3 a 13.51 13.51 0 0 1 5.8 0.2"/><path style="fill:none;stroke:#0366d6;stroke-miterlimit:10;stroke-width:2px" d="M 18.27 388.53 s -1.53 -2.08 -3.58 -1.7 c -1.5 0.28 -1.72 4 -1.72 4"/></g></g></svg>