<svg xmlns="http://www.w3.org/2000/svg" xmlns:xlink="http://www.w3.org/1999/xlink" id="body_6" preserveAspectRatio="xMinYMin meet" viewBox="0 0 793 1121"><defs><clipPath id="1"><path id="" clip-rule="evenodd" transform="matrix(1 0 0 1 0 0)" d="M0 841L0 -0.9200439L0 -0.9200439L595.32 -0.9200439L595.32 -0.9200439L595.32 841L595.32 841L0 841z" /></clipPath><clipPath id="2"><path id="" clip-rule="evenodd" transform="matrix(1 0 0 1 0 0)" d="M246 149.08L267.84 149.08L267.84 149.08L267.84 167.7999L267.84 167.7999L246 167.7999z" /></clipPath><clipPath id="3"><path id="" clip-rule="evenodd" transform="matrix(1 0 0 1 0 0)" d="M135.72 199.6L459.12 199.6L459.12 199.6L459.12 402.4L459.12 402.4L135.72 402.4z" /></clipPath><clipPath id="4"><path id="" clip-rule="evenodd" transform="matrix(1 0 0 1 0 0)" d="M146.16 479.3199L449.28 479.3199L449.28 479.3199L449.28 738.52L449.28 738.52L146.16 738.52z" /></clipPath></defs><g transform="matrix(1.333333 0 0 1.333333 0 0)"><g clip-path="url(#1)"><g clip-path="url(#2)"><g transform="matrix(0.7531035 0 0 0.7488 246 149.08)"><g transform="matrix(1 0 0 1 0 0)"><image x="0" y="0" xlink:href="img_10.png" width="29" height="25" /></g></g></g><g clip-path="url(#3)"><g transform="matrix(0.3425847 0 0 0.3425676 135.72 199.6)"><g transform="matrix(1 0 0 1 0 0)"><image x="0" y="0" xlink:href="img_11.png" width="944" height="592" /></g></g></g><g clip-path="url(#4)"><g transform="matrix(0.3383036 0 0 0.3383812 146.16 479.32)"><g transform="matrix(1 0 0 1 0 0)"><image x="0" y="0" xlink:href="img_12.png" width="896" height="766" /></g></g></g></g></g></svg>