<svg xmlns="http://www.w3.org/2000/svg" xmlns:xlink="http://www.w3.org/1999/xlink" id="body_1" preserveAspectRatio="xMinYMin meet" viewBox="0 0 793 1121"><defs><clipPath id="1"><path id="" clip-rule="evenodd" transform="matrix(1 0 0 1 0 0)" d="M0 841L0 -0.9200439L0 -0.9200439L595.32 -0.9200439L595.32 -0.9200439L595.32 841L595.32 841L0 841z" /></clipPath><clipPath id="2"><path id="" clip-rule="evenodd" transform="matrix(1 0 0 1 0 0)" d="M213.6 106.6L378.48 106.6L378.48 106.6L378.48 253.96L378.48 253.96L213.6 253.96z" /></clipPath></defs><g transform="matrix(1.333333 0 0 1.333333 0 0)"><g clip-path="url(#1)"><g clip-path="url(#2)"><g transform="matrix(0.24 0 0 0.24 213.6 106.6)"><g transform="matrix(1 0 0 1 0 0)"><image x="0" y="0" xlink:href="img_01.png" width="687" height="614" /></g></g></g><path id="49" transform="matrix(1 0 0 -1 0 841)" d="M217.8 615.72L217.92 614.52L217.92 613.32L218.04 612.12L218.28 611.04L218.52 609.96L218.88 608.88L219.24 607.8L219.6 606.72L220.08 605.76L220.56 604.6801L221.16 603.72L221.76 602.88L223.08 601.08L224.52 599.52L226.2 597.96L227.88 596.64L228.84 596.04L229.8 595.5601L230.76 594.96L231.84 594.6L232.92 594.12L233.88 593.76L234.96 593.52L236.16 593.16L237.24 593.04L238.44 592.8L239.52 592.8L240.72 592.6801L351.36 592.6801L352.56 592.8L353.64 592.8L354.84 593.04L355.92 593.16L357.12 593.4L358.2 593.76L359.28 594.12L360.24 594.48L361.32 594.96L362.28 595.5601L363.24 596.04L364.2 596.64L365.88 597.96L367.56 599.4L369 601.08L370.32 602.88L370.92 603.72L371.52 604.6801L372 605.76L372.48 606.72L372.84 607.8L373.2 608.88L373.56 609.96L373.8 611.04L374.04 612.12L374.16 613.32L374.28 614.52L374.28 615.6L374.28 708.84L374.28 710.04L374.16 711.2401L374.04 712.32L373.8 713.52L373.56 714.6L373.2 715.6801L372.84 716.76L372.48 717.72L372 718.8L371.52 719.76L370.92 720.72L370.44 721.6801L369.12 723.48L367.56 725.04L366 726.6L364.2 727.92L363.24 728.52L362.28 729L361.32 729.48L360.24 729.96L359.28 730.44L358.2 730.8L357.12 731.04L356.04 731.28L354.84 731.52L353.76 731.64L352.56 731.76L351.36 731.76L240.72 731.76L239.64 731.76L238.44 731.64L237.24 731.52L236.16 731.28L235.08 731.04L234 730.8L232.92 730.44L231.84 729.96L230.88 729.48L229.8 729L228.84 728.52L228 727.92L226.2 726.6L224.52 725.04L223.08 723.48L221.76 721.6801L221.16 720.72L220.56 719.76L220.08 718.8L219.6 717.84L219.24 716.76L218.88 715.6801L218.52 714.6L218.28 713.52L218.04 712.32L217.92 711.2401L217.92 710.04L217.8 708.84L217.8 615.72zM217.08 708.84L217.08 710.04L217.2 711.2401L217.32 712.44L217.56 713.64L217.8 714.72L218.16 715.92L218.52 717L218.88 718.08L219.36 719.16L219.96 720.1201L220.56 721.08L221.16 722.04L222.48 723.96L224.04 725.64L225.72 727.08L227.52 728.52L228.48 729.1201L229.44 729.72L230.52 730.2L231.48 730.6801L232.56 731.04L233.76 731.52L234.84 731.76L235.92 732L237.12 732.2401L238.32 732.36L239.52 732.48L240.72 732.48L351.36 732.48L352.56 732.48L353.76 732.36L354.96 732.2401L356.16 732.1201L357.24 731.76L358.44 731.52L359.52 731.16L360.6 730.6801L361.56 730.2L362.64 729.72L363.6 729.1201L364.56 728.52L366.36 727.2L368.04 725.64L369.6 723.96L371.04 722.16L371.64 721.2L372.12 720.1201L372.72 719.16L373.2 718.08L373.56 717L373.92 715.92L374.28 714.84L374.52 713.64L374.76 712.44L374.88 711.2401L375 710.04L375 708.84L375 615.6L375 614.4L374.88 613.2L374.76 612.12L374.52 610.92L374.28 609.72L373.92 608.64L373.56 607.5601L373.2 606.48L372.72 605.4L372.12 604.32L371.64 603.36L371.04 602.4L369.6 600.6L368.16 598.92L366.48 597.36L364.56 596.04L363.6 595.4401L362.64 594.84L361.68 594.36L360.6 593.88L359.52 593.4L358.44 593.04L357.24 592.6801L356.16 592.4401L354.96 592.32L353.76 592.08L352.56 591.96L351.36 591.96L240.72 591.96L239.52 591.96L238.32 592.08L237.12 592.32L236.04 592.4401L234.84 592.6801L233.76 593.04L232.68 593.4L231.6 593.88L230.52 594.36L229.44 594.84L228.48 595.4401L227.52 596.04L225.72 597.36L224.04 598.92L222.48 600.6L221.16 602.4L220.56 603.36L219.96 604.32L219.36 605.4L219 606.48L218.52 607.5601L218.16 608.64L217.8 609.72L217.56 610.92L217.32 612L217.2 613.2L217.08 614.4L217.08 615.6L217.08 708.84z" stroke="none" fill="#46AAC5" fill-rule="nonzero" /></g></g></svg>