<svg xmlns="http://www.w3.org/2000/svg" xmlns:xlink="http://www.w3.org/1999/xlink" id="body_2" preserveAspectRatio="xMinYMin meet" viewBox="0 0 793 1121"><defs><clipPath id="1"><path id="" clip-rule="evenodd" transform="matrix(1 0 0 1 0 0)" d="M0 841L0 -0.9200439L0 -0.9200439L595.32 -0.9200439L595.32 -0.9200439L595.32 841L595.32 841L0 841z" /></clipPath></defs><g transform="matrix(1.333333 0 0 1.333333 0 0)"><g clip-path="url(#1)"><path id="579" transform="matrix(1 0 0 -1 0 841)" d="M147 215.04L415.8 215.04L415.8 214.4401L147 214.4401z" stroke="none" fill="#0000FF" fill-rule="nonzero" /><path id="640" transform="matrix(1 0 0 -1 0 841)" d="M145.68 199.4401L430.08 199.4401L430.08 198.84L145.68 198.84z" stroke="none" fill="#0000FF" fill-rule="nonzero" /><path id="716" transform="matrix(1 0 0 -1 0 841)" d="M166.68 183.96L481.32 183.96L481.32 183.48L166.68 183.48z" stroke="none" fill="#0000FF" fill-rule="nonzero" /></g></g></svg>