<?xml version="1.0" encoding="iso-8859-1"?>
<!-- Generator: Adobe Illustrator 19.0.0, SVG Export Plug-In . SVG Version: 6.00 Build 0)  -->
<svg version="1.1" id="Capa_1" xmlns="http://www.w3.org/2000/svg" xmlns:xlink="http://www.w3.org/1999/xlink" x="0px" y="0px"
	 viewBox="0 0 512 512" style="enable-background:new 0 0 512 512;" xml:space="preserve">
<linearGradient id="SVGID_1_" gradientUnits="userSpaceOnUse" x1="0" y1="258" x2="512" y2="258" gradientTransform="matrix(1 0 0 -1 0 514)">
	<stop  offset="0" style="stop-color:#00F2FE"/>
	<stop  offset="0.021" style="stop-color:#03EFFE"/>
	<stop  offset="0.293" style="stop-color:#24D2FE"/>
	<stop  offset="0.554" style="stop-color:#3CBDFE"/>
	<stop  offset="0.796" style="stop-color:#4AB0FE"/>
	<stop  offset="1" style="stop-color:#4FACFE"/>
</linearGradient>
<path style="fill:url(#SVGID_1_);" d="M512,244c0,49.6-31.682,93.189-78.835,108.468c-10.509,3.403-21.787-2.354-25.191-12.861
	c-3.404-10.509,2.354-21.787,12.861-25.191C451.438,304.5,472,276.202,472,244c0-27.458-15.088-52.523-39.376-65.414
	C426.087,175.116,422,168.32,422,160.92v-24.598C422,83.21,378.79,40,325.678,40c-47.067,0-87.985,35.008-95.178,81.431
	c-1.188,7.666-6.701,13.953-14.146,16.132c-7.446,2.184-15.479-0.143-20.612-5.959C186.427,121.052,173.035,115,159,115
	c-27.019,0-49,21.981-49,49v36c0,11.046-8.954,20-20,20h-0.154C62.36,220,40,241.981,40,269c0,27.477,21.084,49,48,49
	c11.046,0,20,8.954,20,20s-8.954,20-20,20c-23.866,0-46.119-9.313-62.66-26.226C8.999,315.067,0,292.773,0,269
	c0-42.32,29.978-77.838,70-86.813V164c0-49.075,39.925-89,89-89c14.217,0,28.067,3.414,40.47,9.751
	c8.067-19.71,20.729-37.444,37.093-51.591C261.297,11.776,292.945,0,325.678,0C400.846,0,462,61.154,462,136.322v13.324
	C493.119,170.737,512,205.868,512,244z M177,347c0-42.631,33.521-77.574,75.588-79.873l-16.73,16.73
	c-7.81,7.811-7.81,20.475,0,28.285C239.763,316.048,244.882,318,250,318s10.237-1.952,14.143-5.857l47-47
	c7.81-7.811,7.81-20.475,0-28.285l-47-47c-7.811-7.811-20.475-7.811-28.285,0s-7.81,20.475,0,28.285l9.43,9.43
	C184.596,233.479,137,284.784,137,347c0,15.4,2.963,30.41,8.807,44.61c3.179,7.726,10.637,12.395,18.503,12.395
	c2.534,0,5.113-0.485,7.603-1.51c10.215-4.203,15.088-15.891,10.885-26.105C178.896,366.909,177,357.296,177,347z M341.4,287.537
	c-10.197,4.246-15.021,15.955-10.774,26.151C334.796,323.702,337,335.221,337,347c0,44.112-35.888,80-80,80
	c-0.254,0-0.501,0.029-0.753,0.038l14.896-14.896c7.81-7.811,7.81-20.475,0-28.285c-7.811-7.811-20.475-7.811-28.285,0l-47,47
	c-7.81,7.811-7.81,20.475,0,28.285l47,47C246.763,510.048,251.882,512,257,512c5.118,0,10.237-1.952,14.143-5.857
	c7.81-7.811,7.81-20.475,0-28.285l-10.903-10.902C324.916,465.232,377,412.084,377,347c0-17.011-3.268-33.847-9.448-48.688
	C363.305,288.113,351.595,283.289,341.4,287.537z"/>
<g>
</g>
<g>
</g>
<g>
</g>
<g>
</g>
<g>
</g>
<g>
</g>
<g>
</g>
<g>
</g>
<g>
</g>
<g>
</g>
<g>
</g>
<g>
</g>
<g>
</g>
<g>
</g>
<g>
</g>
</svg>
