<svg width="512.0000282012556" height="512.0000282012556" xmlns="http://www.w3.org/2000/svg">
 <defs>
  <linearGradient y2="0.5" x2="1" y1="0.5" x1="0" id="SVGID_1_">
   <stop offset="0" stop-color="rgb(0, 242, 254)"/>
   <stop offset="0.021" stop-color="rgb(3, 239, 254)"/>
   <stop offset="0.293" stop-color="rgb(36, 210, 254)"/>
   <stop offset="0.554" stop-color="rgb(60, 189, 254)"/>
   <stop offset="0.796" stop-color="rgb(74, 176, 254)"/>
   <stop offset="1" stop-color="rgb(79, 172, 254)"/>
  </linearGradient>
  <filter id="svg_17_blur">
   <feGaussianBlur stdDeviation="0" in="SourceGraphic"/>
  </filter>
 </defs>
 <g>
  <title>background</title>
  <rect height="402" width="582" y="-1" x="-1" fill="none" id="canvas_background"/>
 </g>
 <g>
  <title>Layer 1</title>
  <path d="m512,303.996094c0,49.600006 -31.682007,93.188995 -78.834991,108.467987c-10.509003,3.403015 -21.787018,-2.353973 -25.19101,-12.860992c-3.403992,-10.509003 2.354004,-21.786987 12.860992,-25.19101c30.602997,-9.915985 51.165009,-38.213989 51.165009,-70.415985c0,-27.457977 -15.088013,-52.52298 -39.376007,-65.414001c-6.536987,-3.470001 -10.623993,-10.265991 -10.623993,-17.665985l0,-24.598007c0,-53.112015 -43.209991,-96.322006 -96.321991,-96.322006c-47.067017,0 -87.985016,35.007996 -95.178009,81.431c-1.188004,7.666 -6.701004,13.953003 -14.145996,16.132004c-7.445999,2.18399 -15.479004,-0.143005 -20.612,-5.959c-9.315002,-10.552002 -22.707001,-16.604004 -36.742004,-16.604004c-27.018997,0 -48.999992,21.981003 -48.999992,49l0,36c0,11.04599 -8.954002,20 -20,20l-0.153999,0c-27.486008,0 -49.846008,21.980988 -49.846008,49c0,27.47699 21.084,49 48.000008,49c11.045998,0 20,8.95401 20,20s-8.954002,20 -20,20c-23.865997,0 -46.119007,-9.312988 -62.660007,-26.226013c-16.341001,-16.707001 -25.34,-39.000977 -25.34,-62.773987c0,-42.320007 29.978003,-77.837982 70.000008,-86.813019l0,-18.186981c0,-49.074997 39.925003,-89 88.999992,-89c14.216995,0 28.067001,3.414001 40.470001,9.751007c8.067001,-19.710007 20.729004,-37.444 37.093002,-51.591003c24.733994,-21.384003 56.382004,-33.160004 89.115005,-33.160004c75.167999,0 136.321991,61.153992 136.321991,136.322006l0,13.32399c31.118988,21.091003 50,56.222015 50,94.354004z" fill="url(#SVGID_1_)" id="svg_1"/>
  <g id="svg_2"/>
  <g id="svg_3"/>
  <g id="svg_4"/>
  <g id="svg_5"/>
  <g id="svg_6"/>
  <g id="svg_7"/>
  <g id="svg_8"/>
  <g id="svg_9"/>
  <g id="svg_10"/>
  <g id="svg_11"/>
  <g id="svg_12"/>
  <g id="svg_13"/>
  <g id="svg_14"/>
  <g id="svg_15"/>
  <g id="svg_16"/>
  <path d="m126.347054,298.582611l107.967354,54.477814l0.572998,-20.093872c3.905441,-31.092224 128.965897,-23.459686 128.965897,-8.444763c20.074005,26.176453 -16.15036,57.910248 -49.481598,68.576294c-16.887848,6.472717 -33.10907,10.945587 -49.996918,14.085175c18.665527,11.332642 144.123962,-11.490417 128.668396,-87.809753c-19.332153,-56.983368 -150.038437,-21.164063 -155.782822,-41.655487c-1.361969,-14.184113 -0.042145,-8.00473 -1.217728,-30.594604l-109.69558,51.459198z" stroke-width="null" stroke-opacity="null" stroke="null" fill-opacity="null" fill="url(#SVGID_1_)" opacity="0.83" filter="url(#svg_17_blur)" id="svg_17"/>
 </g>
</svg>