<?xml version="1.0" encoding="iso-8859-1"?>
<!-- Generator: Adobe Illustrator 19.0.0, SVG Export Plug-In . SVG Version: 6.00 Build 0)  -->
<svg xmlns="http://www.w3.org/2000/svg" xmlns:xlink="http://www.w3.org/1999/xlink" version="1.1" id="Layer_1" x="0px" y="0px" viewBox="0 0 512 512" style="enable-background:new 0 0 512 512;" xml:space="preserve" width="512" height="512">
<linearGradient id="SVGID_1_" gradientUnits="userSpaceOnUse" x1="0" y1="256" x2="512" y2="256">
	<stop offset="0" style="stop-color:#00F2FE"/>
	<stop offset="0.0208" style="stop-color:#03EFFE"/>
	<stop offset="0.2931" style="stop-color:#24D2FE"/>
	<stop offset="0.5538" style="stop-color:#3CBDFE"/>
	<stop offset="0.7956" style="stop-color:#4AB0FE"/>
	<stop offset="1" style="stop-color:#4FACFE"/>
</linearGradient>
<path style="fill:url(#SVGID_1_);" d="M398.335,379H383c-11.046,0-20-8.954-20-20s8.954-20,20-20h15.335  c5.371,0,10.762-0.609,16.021-1.809l0.211-0.048C448.376,329.428,472,299.76,472,265c0-27.458-15.088-52.523-39.376-65.414  C426.087,196.117,422,189.321,422,181.92v-23.163c0-26.387-10.42-51.216-29.341-69.914c-18.47-18.252-42.643-28.129-68.151-27.836  c-47.249,0.56-86.785,34.804-94.008,81.424c-1.188,7.666-6.702,13.953-14.146,16.132c-7.449,2.18-15.479-0.145-20.612-5.959  C186.425,142.048,173.036,136,158.997,136c-0.031,0-0.061,0-0.092,0C131.939,136.051,110,158.451,110,185.934V221  c0,11.046-8.954,20-20,20h-0.154C62.36,241,40,262.982,40,290c0,27.477,21.084,49,48,49h42c11.046,0,20,8.954,20,20s-8.954,20-20,20  H88c-23.866,0-46.119-9.313-62.66-26.225C8.999,336.067,0,313.774,0,290c0-42.32,29.978-77.837,70-86.812v-17.254  c0-49.498,39.85-89.842,88.83-89.934c0.055,0,0.111,0,0.166,0c14.223,0,28.074,3.412,40.478,9.751  c7.974-19.478,20.434-37.032,36.512-51.089c24.381-21.317,55.65-33.269,88.048-33.652c36.228-0.438,70.608,13.556,96.742,39.382  C447.359,86.663,462,121.596,462,158.757v11.89c31.119,21.091,50,56.222,50,94.354c0,25.976-8.972,51.393-25.262,71.57  c-16.04,19.867-38.516,33.921-63.289,39.574l-0.21,0.048C415.081,378.054,406.696,379,398.335,379z M255,451L255,451  c-11.046,0-20,8.954-20,20l0,0c0,11.046,8.954,20,20,20h0c11.046,0,20-8.954,20-20l0,0C275,459.954,266.046,451,255,451z   M275.993,407v-1.287c0-6.484,3.703-12.254,9.434-14.701c27.691-11.822,45.58-38.915,45.573-69.023c0-0.28-0.006-0.559-0.018-0.836  C330.531,280.187,297.064,247,255.993,247C214.642,247,181,280.642,181,321.994c0,11.046,8.954,20,20,20s20-8.954,20-20  C221,302.698,236.698,287,255.993,287c19.296,0,34.994,15.698,34.994,34.994c0,0.193,0.003,0.386,0.008,0.578  c-0.221,13.827-8.521,26.208-21.273,31.652c-20.489,8.748-33.729,28.958-33.729,51.489V407c0,11.046,8.954,20,20,20  S275.993,418.046,275.993,407z"/>















</svg>
