<svg height="503pt" viewBox="0 -65 503 503" width="503pt" xmlns="http://www.w3.org/2000/svg"><path d="m499 293.535156c0 41.699219-33.800781 75.5-75.5 75.5-367.441406-.039062-343.738281.101563-348.039062-.097656-6.339844-.339844-12.539063-1.480469-18.460938-3.320312-6.980469-2.179688-13.558594-5.339844-19.601562-9.421876-4.019532-2.699218-7.796876-5.800781-11.277344-9.28125-44.421875-44.417968-18.140625-121.359374 44.9375-128.378906-35.738282-72.917968 35.0625-153.699218 112.160156-127.179687 19.300781-52.378907 68.859375-87.359375 125-87.359375 35.542969 0 65.902344 13 88.601562 33.5 8.078126 7.300781 15.199219 15.539062 21.21875 24.5 30.179688 44.738281 33.359376 107.039062-4.339843 156.058594h9.800781c41.679688 0 75.5 33.800781 75.5 75.480468zm0 0" fill="#1c868e"/><path d="m498.984375 295.027344c-.792969 41.011718-34.28125 74.007812-75.484375 74.007812-367.441406-.039062-343.738281.101563-348.039062-.097656-6.339844-.339844-12.539063-1.480469-18.460938-3.320312-6.980469-2.179688-13.558594-5.339844-19.601562-9.421876-21.953126-41.738281.421874-96.449218 48.621093-108.164062 4.933594-1.203125 7.742188-6.3125 5.996094-11.078125-24.898437-67.988281 38.011719-138.527344 108.996094-120.015625 4.0625 1.058594 8.257812-.933594 9.929687-4.792969 20.984375-48.5 68.597656-80.410156 122.214844-80.410156 33.640625 0 62.621094 11.640625 84.882812 30.261719 30.179688 44.738281 33.359376 107.039062-4.339843 156.058594h8.328125c42.335937 0 77.777344 34.644531 76.957031 76.972656zm0 0" fill="#40c4df"/><path d="m256.984375 251.460938s-.871094-113.746094 139.449219-111.140626c4.953125.09375 8.625 4.632813 7.769531 9.515626-5.523437 31.578124-32.332031 132.082031-147.21875 101.625zm0 0" fill="#7befe4"/><path d="m256.984375 251.464844s.871094-113.75-139.449219-111.140625c-4.957031.089843-8.625 4.628906-7.769531 9.511719 5.519531 31.582031 32.328125 132.085937 147.21875 101.628906zm0 0" fill="#7befe4"/><path d="m423.511719 214.054688h-1.980469c61.0625-89.417969-2.476562-214.054688-113.320312-214.054688-56.046876 0-106.746094 34.5625-127.371094 86.398438-77.496094-23.027344-146.824219 54.96875-115.625 128.949218-37.542969 6.777344-65.214844 39.480469-65.214844 78.199219 0 43.832031 35.65625 79.492187 79.488281 79.492187h344.023438c43.832031 0 79.488281-35.660156 79.488281-79.492187 0-43.828125-35.65625-79.492187-79.488281-79.492187zm0 150.980468h-196.734375c36.644531-39.449218 36.167968-91.003906 34.789062-108.308594 81.839844 19.179688 132.867188-27.808593 146.578125-106.203124 1.28125-7.304688-4.242187-14.0625-11.636719-14.203126-47.609374-.882812-84.546874 11.296876-109.726562 36.207032-17.210938 17.023437-25.652344 36.726562-29.800781 52.203125-4.144531-15.476563-12.585938-35.179688-29.792969-52.203125-25.179688-24.90625-62.109375-37.082032-109.726562-36.203125-7.398438.136719-12.917969 6.894531-11.636719 14.203125 13.742187 78.585937 64.996093 125.8125 147.660156 105.9375 1.257813 15.765625 2.3125 70.585937-37.957031 108.570312h-136.039063c-39.417969 0-71.488281-32.070312-71.488281-71.492187 0-36.46875 27.296875-67.007813 63.5-71.03125 2.75-.304688 4.367188-3.25 3.152344-5.734375-28.308594-57.855469 13.808594-126.34375 78.917968-126.34375 24.878907 0 30.917969 9.136718 33.414063 2.296875 18.527344-50.679688 67.242187-84.730469 121.226563-84.730469 107.296874 0 166.945312 123.601562 102.308593 207.617188-2.019531 2.621093-.144531 6.4375 3.171875 6.4375h9.816406c39.421876 0 71.488282 32.074218 71.488282 71.492187.003906 39.417969-32.066406 71.488281-71.484375 71.488281zm-95.753907-135.757812-22.617187-7.644532 33.59375-24.246093 31.140625-1.769531c5.296875-.300782 4.8125-8.28125-.453125-7.988282l-18.636719 1.0625 16.375-11.824218c4.285156-3.089844-.375-9.582032-4.683594-6.484376l-38.371093 27.695313 6.160156-18.21875c1.691406-5.015625-5.882813-7.582031-7.578125-2.5625l-9.753906 28.84375-51.339844 37.058594c6.839844-56.84375 49.542969-100.398438 134.765625-98.878907 2.523437.046876 4.332031 2.382813 3.90625 4.824219-3.355469 19.183594-15.136719 66.351563-51.992187 89.933594-21.917969 14.027344-49.4375 17.542969-81.875 10.523437l30.777343-22.214843 28.019531 9.472656c5.105469 1.71875 7.488282-5.914063 2.5625-7.582031zm-144.054687-49.417969 6.160156 18.226563-38.375-27.703126c-4.292969-3.097656-8.972656 3.390626-4.683593 6.488282l16.375 11.820312-18.632813-1.0625c-5.285156-.296875-5.734375 7.6875-.453125 7.988282l31.136719 1.769531 33.589843 24.246093-22.609374 7.644532c-5.011719 1.695312-2.453126 9.269531 2.5625 7.578125l28.015624-9.46875 30.777344 22.214843c-32.429687 7.019532-59.949218 3.507813-81.875-10.523437-36.851562-23.582031-48.636718-70.75-51.992187-89.933594-.207031-1.195312.113281-2.417969.886719-3.355469 1.476562-1.796874 3.039062-1.511718 7.679687-1.511718 81.289063 0 123.207031 42.378906 130.089844 98.914062l-51.324219-37.046875-9.75-28.851562c-1.695312-5.003907-9.273438-2.449219-7.578125 2.566406zm0 0" fill="#491352"/></svg>