<svg width="512.000073230808" height="512.000073230808" xmlns="http://www.w3.org/2000/svg">
 <defs>
  <linearGradient y2="0.5" x2="1" y1="0.5" x1="0" id="SVGID_1_">
   <stop offset="0" stop-color="rgb(0, 242, 254)"/>
   <stop offset="0.0208" stop-color="rgb(3, 239, 254)"/>
   <stop offset="0.2931" stop-color="rgb(36, 210, 254)"/>
   <stop offset="0.5538" stop-color="rgb(60, 189, 254)"/>
   <stop offset="0.7956" stop-color="rgb(74, 176, 254)"/>
   <stop offset="1" stop-color="rgb(79, 172, 254)"/>
  </linearGradient>
 </defs>
 <g>
  <title>background</title>
  <rect height="402" width="582" y="-1" x="-1" fill="none" id="canvas_background"/>
 </g>
 <g>
  <title>Layer 1</title>
  <path d="m398.334991,379l-15.334991,0c-11.04599,0 -20,-8.95401 -20,-20s8.95401,-20 20,-20l15.334991,0c5.371002,0 10.761993,-0.609009 16.020996,-1.80899l0.210999,-0.048004c33.809021,-7.714996 57.433014,-37.382996 57.433014,-72.143005c0,-27.457993 -15.088013,-52.522995 -39.376007,-65.414001c-6.536987,-3.468994 -10.623993,-10.264999 -10.623993,-17.666l0,-23.162994c0,-26.387009 -10.420013,-51.216003 -29.341003,-69.914001c-18.470001,-18.251999 -42.643005,-28.129002 -68.151001,-27.836002c-47.248993,0.560001 -86.784988,34.803997 -94.007996,81.424c-1.188004,7.666 -6.701996,13.953003 -14.145996,16.132004c-7.449005,2.179993 -15.479004,-0.145004 -20.612,-5.959c-9.317001,-10.556 -22.706009,-16.604004 -36.74501,-16.604004c-0.030991,0 -0.060989,0 -0.091995,0c-26.966003,0.050995 -48.904999,22.451004 -48.904999,49.934006l0,35.065994c0,11.046005 -8.954002,20 -20,20l-0.153999,0c-27.486,0 -49.846001,21.981995 -49.846001,49c0,27.47699 21.084,49 48,49l42,0c11.046005,0 20,8.95401 20,20s-8.953995,20 -20,20l-42,0c-23.865997,0 -46.118999,-9.312988 -62.66,-26.225006c-16.341001,-16.708008 -25.34,-39.001007 -25.34,-62.774994c0,-42.320007 29.978001,-77.837006 70,-86.811996l0,-17.253998c0,-49.498001 39.849998,-89.842003 88.830002,-89.934006c0.054993,0 0.110992,0 0.166,0c14.222992,0 28.074005,3.412003 40.477997,9.750999c7.973999,-19.477997 20.434006,-37.031998 36.511993,-51.089001c24.381012,-21.316998 55.649994,-33.268999 88.048004,-33.651999c36.227997,-0.438 70.608002,13.556002 96.742004,39.381998c26.583008,26.271004 41.223999,61.204002 41.223999,98.365005l0,11.889999c31.118988,21.091003 50,56.222 50,94.354004c0,25.975983 -8.971985,51.393005 -25.261993,71.570007c-16.040009,19.866974 -38.516022,33.92099 -63.289001,39.573975l-0.209991,0.048004c-8.15802,1.860992 -16.542999,2.807007 -24.904022,2.807007z" fill="url(#SVGID_1_)" id="svg_1"/>
  <g id="svg_52">
   <polygon points="163.151,277.045 191.9,417.56 403.328,160.022" fill="#027372" id="svg_31"/>
   <polygon points="252.588,356.715 191.9,417.56 202.234,329.078 240.963,330.137" fill="#02acab" id="svg_32"/>
   <g transform="matrix(0.579407, 0, 0, 0.579407, -255.736, -466.029)" id="svg_33">
    <polygon points="1137.48,1080.5 734.934,1341.02 625.479,1279.35" fill="#81e3e2" id="svg_34"/>
    <polygon points="1137.48,1080.5 1136.95,1081.98 925.725,1446.54 790.411,1372.28" fill="#81e3e2" id="svg_35"/>
   </g>
   <polygon points="280.636,372.109 403.022,160.876 319.619,393.507" fill="#42c8c6" id="svg_36"/>
   <g transform="matrix(0.579407, 0, 0, 0.579407, -255.736, -466.029)" id="svg_37"/>
   <g transform="matrix(0.579407, 0, 0, 0.579407, -255.736, -466.029)" id="svg_38"/>
   <g transform="matrix(0.579407, 0, 0, 0.579407, -255.736, -466.029)" id="svg_39"/>
   <g transform="matrix(0.579407, 0, 0, 0.579407, -255.736, -466.029)" id="svg_40"/>
   <g transform="matrix(0.579407, 0, 0, 0.579407, -255.736, -466.029)" id="svg_41"/>
   <g transform="matrix(0.579407, 0, 0, 0.579407, -255.736, -466.029)" id="svg_42"/>
   <g transform="matrix(0.579407, 0, 0, 0.579407, -255.736, -466.029)" id="svg_43"/>
   <g transform="matrix(0.579407, 0, 0, 0.579407, -255.736, -466.029)" id="svg_44"/>
   <g transform="matrix(0.579407, 0, 0, 0.579407, -255.736, -466.029)" id="svg_45"/>
   <g transform="matrix(0.579407, 0, 0, 0.579407, -255.736, -466.029)" id="svg_46"/>
   <g transform="matrix(0.579407, 0, 0, 0.579407, -255.736, -466.029)" id="svg_47"/>
   <g transform="matrix(0.579407, 0, 0, 0.579407, -255.736, -466.029)" id="svg_48"/>
   <g transform="matrix(0.579407, 0, 0, 0.579407, -255.736, -466.029)" id="svg_49"/>
   <g transform="matrix(0.579407, 0, 0, 0.579407, -255.736, -466.029)" id="svg_50"/>
   <g transform="matrix(0.579407, 0, 0, 0.579407, -255.736, -466.029)" id="svg_51"/>
  </g>
 </g>
</svg>