<svg width="512.000073230808" height="512.000073230808" xmlns="http://www.w3.org/2000/svg">
 <defs>
  <linearGradient y2="0.5" x2="1" y1="0.5" x1="0" id="SVGID_1_">
   <stop offset="0" stop-color="rgb(0, 242, 254)"/>
   <stop offset="0.0208" stop-color="rgb(3, 239, 254)"/>
   <stop offset="0.2931" stop-color="rgb(36, 210, 254)"/>
   <stop offset="0.5538" stop-color="rgb(60, 189, 254)"/>
   <stop offset="0.7956" stop-color="rgb(74, 176, 254)"/>
   <stop offset="1" stop-color="rgb(79, 172, 254)"/>
  </linearGradient>
 </defs>
 <g>
  <title>background</title>
  <rect height="402" width="582" y="-1" x="-1" fill="none" id="canvas_background"/>
 </g>
 <g>
  <title>Layer 1</title>
  <path d="m398.334991,379l-15.334991,0c-11.04599,0 -20,-8.95401 -20,-20s8.95401,-20 20,-20l15.334991,0c5.371002,0 10.761993,-0.609009 16.020996,-1.80899l0.210999,-0.048004c33.809021,-7.714996 57.433014,-37.382996 57.433014,-72.143005c0,-27.457993 -15.088013,-52.522995 -39.376007,-65.414001c-6.536987,-3.468994 -10.623993,-10.264999 -10.623993,-17.666l0,-23.162994c0,-26.387009 -10.420013,-51.216003 -29.341003,-69.914001c-18.470001,-18.251999 -42.643005,-28.129002 -68.151001,-27.836002c-47.248993,0.560001 -86.784988,34.803997 -94.007996,81.424c-1.188004,7.666 -6.701996,13.953003 -14.145996,16.132004c-7.449005,2.179993 -15.479004,-0.145004 -20.612,-5.959c-9.317001,-10.556 -22.706009,-16.604004 -36.74501,-16.604004c-0.030991,0 -0.060989,0 -0.091995,0c-26.966003,0.050995 -48.904999,22.451004 -48.904999,49.934006l0,35.065994c0,11.046005 -8.954002,20 -20,20l-0.153999,0c-27.486,0 -49.846001,21.981995 -49.846001,49c0,27.47699 21.084,49 48,49l42,0c11.046005,0 20,8.95401 20,20s-8.953995,20 -20,20l-42,0c-23.865997,0 -46.118999,-9.312988 -62.66,-26.225006c-16.341001,-16.708008 -25.34,-39.001007 -25.34,-62.774994c0,-42.320007 29.978001,-77.837006 70,-86.811996l0,-17.253998c0,-49.498001 39.849998,-89.842003 88.830002,-89.934006c0.054993,0 0.110992,0 0.166,0c14.222992,0 28.074005,3.412003 40.477997,9.750999c7.973999,-19.477997 20.434006,-37.031998 36.511993,-51.089001c24.381012,-21.316998 55.649994,-33.268999 88.048004,-33.651999c36.227997,-0.438 70.608002,13.556002 96.742004,39.381998c26.583008,26.271004 41.223999,61.204002 41.223999,98.365005l0,11.889999c31.118988,21.091003 50,56.222 50,94.354004c0,25.975983 -8.971985,51.393005 -25.261993,71.570007c-16.040009,19.866974 -38.516022,33.92099 -63.289001,39.573975l-0.209991,0.048004c-8.15802,1.860992 -16.542999,2.807007 -24.904022,2.807007z" fill="url(#SVGID_1_)" id="svg_1"/>
  <g transform="rotate(-10 271.167 334.523)" opacity="0.9" id="svg_26">
   <path d="m263.804657,345.617615l-7.059845,-1.441711l-34.305222,-6.949799l-52.750336,24.360321c-0.746231,0.316742 -1.350357,0.895447 -1.700638,1.626282c-0.492447,0.890198 -0.587204,1.944611 -0.263931,2.907166s1.035553,1.746674 1.964569,2.157745l9.499863,4.325104l6.17308,2.808746c1.201385,0.540283 2.025482,1.678741 2.162598,2.988586c0.136993,1.309723 -0.433228,2.594086 -1.49765,3.370758l-20.515854,18.334564c-0.177704,0.140869 -0.33844,0.303284 -0.480576,0.480896c-2.216736,2.365784 -0.702301,7.873779 2.661804,7.873779l27.577332,0c2.032288,0 1.995087,-0.037292 1.995087,1.996643l0,27.575562c-0.005066,1.605835 1.025452,3.03064 2.551758,3.52832c1.526306,0.497314 3.198242,-0.047668 4.139221,-1.347168l19.999817,-20.515747c0.344818,-0.434937 0.771545,-0.79895 1.255432,-1.07312l4.325012,9.501831c0.421509,0.929138 1.2099,1.642944 2.176392,1.971313c0.964355,0.329712 2.023926,0.24353 2.925812,-0.235107l2.808868,6.174805c0.60907,1.296082 1.913818,2.123535 3.345551,2.123535c1.433014,0 2.736084,-0.827454 3.345154,-2.123535l24.360825,-52.752014l-4.694122,-37.667755zm0,0" fill="#fec108" id="svg_5"/>
   <path d="m225.211166,418.624542c-0.483887,0.27417 -0.910614,0.638184 -1.255432,1.07312l-19.999817,20.515747c-0.940979,1.2995 -2.612915,1.844482 -4.139221,1.347168c-1.526306,-0.497681 -2.556824,-1.922485 -2.551758,-3.52832l0,-6.949768l18.817078,-19.258606c0.776672,-1.064453 2.059387,-1.634521 3.370667,-1.497559c1.30957,0.137268 2.446655,0.961121 2.986908,2.162476l2.771576,6.135742zm0,0" fill="#ff9801" id="svg_6"/>
   <path d="m268.498779,383.28537l-24.360825,52.752014c-0.60907,1.296082 -1.91214,2.123535 -3.345154,2.123535c-1.431732,0 -2.736481,-0.827454 -3.345551,-2.123535l-2.808868,-6.174805c0.715668,-0.37085 1.287506,-0.968201 1.626312,-1.700745l24.323013,-52.750366l-3.842896,-31.235565l7.059845,1.441711l4.694122,37.667755zm0,0" fill="#ff9801" id="svg_7"/>
   <path d="m260.587708,375.411469l-24.323013,52.750366c-0.338806,0.732544 -0.910645,1.329895 -1.626312,1.700745l-4.3255,-9.5c-0.421051,-0.928833 -1.20816,-1.643127 -2.174225,-1.971558c-0.9664,-0.329651 -2.025574,-0.245117 -2.92749,0.233521l-2.771576,-6.135742c-0.540253,-1.201355 -1.677338,-2.025208 -2.986908,-2.162476c-1.311279,-0.136963 -2.593994,0.433105 -3.370667,1.497559l-18.817078,19.258606l0,-20.625793c0,-2.033936 0.037201,-1.996643 -1.995087,-1.996643l-27.577332,0c-3.364105,0 -4.87854,-5.507996 -2.661804,-7.873779c0.142136,-0.177612 0.302872,-0.340027 0.480576,-0.480896l20.515854,-18.334564c1.064423,-0.776672 1.634644,-2.061035 1.49765,-3.370758c-0.137115,-1.309845 -0.961212,-2.448303 -2.162598,-2.988586l-6.17308,-2.808746l-9.499863,-4.325104c-0.929016,-0.411072 -1.641403,-1.194763 -1.964569,-2.157745s-0.228516,-2.016968 0.263931,-2.907166c0.350281,-0.730835 0.954407,-1.30954 1.700638,-1.626282l52.750336,-24.360321l34.305222,6.949799l3.842896,31.235565zm0,0" fill="#fec108" id="svg_8"/>
   <path d="m234.638382,429.862579c-0.901886,0.478638 -1.961456,0.564819 -2.925812,0.235107c-0.966492,-0.328369 -1.754883,-1.042175 -2.176392,-1.971313l-4.325012,-9.501831c0.901917,-0.478638 1.96109,-0.563171 2.92749,-0.233521c0.966064,0.32843 1.753174,1.042725 2.174225,1.971558l4.3255,9.5zm0,0" fill="#fec108" id="svg_9"/>
   <path d="m240.774216,344.039001l-35.820129,17.373383c-1.287537,0.625977 -2.099915,1.94104 -2.081299,3.372375c0.018616,1.433472 0.863129,2.726105 2.166199,3.318329l15.181763,6.902496l-19.073975,15.378479c-0.612579,0.490845 -0.847778,1.314758 -0.58551,2.056061c0.26059,0.741119 0.961121,1.235291 1.746307,1.233643l7.733063,0c0.533203,-0.00177 1.046143,0.209686 1.423492,0.586975c0.377289,0.37735 0.588715,0.890198 0.588715,1.423035l0,7.733368c-0.003479,0.785095 0.492523,1.485901 1.232025,1.748047c0.74118,0.260742 1.565033,0.025452 2.057648,-0.586975l15.37323,-19.074524l6.902618,15.192627c0.592194,1.304382 1.884796,2.149109 3.318237,2.167725c1.431305,0.018677 2.746552,-0.793701 3.372467,-2.081604l17.373367,-35.820007l-20.908218,-20.923431zm0,0" fill="#f57c00" id="svg_10"/>
   <path d="m304.097046,381.770813l-6.504791,-21.255188l-7.392975,-7.395172l-44.988327,-44.986115l-21.255219,-6.506592c-4.243988,-1.280945 -8.838501,-0.603882 -12.532349,1.848053l-34.821548,24.656677l-1.737869,1.219879c-1.32164,0.88324 -1.930801,2.51474 -1.512833,4.04776c0.419632,1.534851 1.773407,2.627808 3.360626,2.717499l33.675858,-2.773376c2.804077,0.154236 5.552246,0.844299 8.097321,2.033875l22.40097,10.42395l1.108093,0.554962l9.980438,9.980438l7.395126,7.393433l0.553162,1.108032l10.425354,22.40274c1.188232,2.543274 1.878296,5.291504 2.032501,8.095642l-2.181091,26.392456l-0.590881,7.283325c0.087921,1.587158 1.181366,2.940918 2.716125,3.360718c1.53479,0.419312 3.16449,-0.189758 4.047791,-1.513184l25.876617,-36.559143c2.451874,-3.692169 3.130676,-8.28656 1.8479,-12.53067zm0,0" fill="#f44335" id="svg_11"/>
   <path d="m302.249146,394.301483l-25.876617,36.559143c-0.883301,1.323425 -2.513,1.932495 -4.047791,1.513184c-1.53476,-0.4198 -2.628204,-1.77356 -2.716125,-3.360718l0.590881,-7.283325l24.656586,-34.821228c2.451904,-3.692627 3.130371,-8.286652 1.847717,-12.53064l-6.504517,-21.257446l7.392975,7.395172l6.504791,21.255188c1.282776,4.24411 0.603973,8.838501 -1.8479,12.53067zm0,0" fill="#c52828" id="svg_12"/>
   <path d="m294.856079,386.908539l-24.656586,34.821228l2.181091,-26.392456c-0.154205,-2.804138 -0.844269,-5.552368 -2.032501,-8.095642l-10.425354,-22.40274l-0.553162,-1.108032l-7.395126,-7.393433l-9.980438,-9.980438l-1.108093,-0.554962l-22.40097,-10.42395c-2.545074,-1.189575 -5.293243,-1.879639 -8.097321,-2.033875l-33.675858,2.773376c-1.587219,-0.089691 -2.940994,-1.182648 -3.360626,-2.717499c-0.417969,-1.53302 0.191193,-3.16452 1.512772,-4.04776l1.73793,-1.219879l34.821548,-24.656677c3.693848,-2.451935 8.288361,-3.128998 12.532349,-1.848053l21.255219,6.506592l44.988327,44.986115l6.504517,21.257446c1.282654,4.243988 0.604187,8.838013 -1.847717,12.53064zm0,0" fill="#f44335" id="svg_13"/>
   <path d="m260.846802,364.167023l-0.93924,0.680664l-26.24559,19.221313c-3.421783,2.529816 -8.180054,2.174133 -11.188599,-0.834381c-3.010742,-3.010315 -3.365936,-7.767212 -0.83606,-11.190308l19.223083,-26.245636l0.680145,-0.939148l19.306259,19.307495zm0,0" fill="#f44335" id="svg_14"/>
   <path d="m378.400177,242.371292c-0.197815,6.012299 -0.815613,12.002625 -1.84967,17.928665c-3.658386,21.514282 -12.938263,49.75647 -31.235687,68.054291c-34.636963,34.637115 -77.924622,47.538086 -96.702347,28.759857c-1.418335,-1.419495 -2.670685,-2.995056 -3.735046,-4.695862c-12.938293,-20.625732 0.480774,-59.995911 32.49321,-92.008301c18.299164,-18.297562 46.539948,-27.575699 68.054321,-31.235916c5.926086,-1.033875 11.917999,-1.651581 17.928589,-1.847839c1.922089,-0.052429 3.834229,0.287659 5.619507,0.998383c5.797424,2.215057 9.572784,7.841583 9.427124,14.046722zm0,0" fill="#0377bc" id="svg_15"/>
   <path d="m369.971741,233.942154c-0.195984,6.013 -0.813995,12.002991 -1.850006,17.929016c-3.65799,21.513992 -12.936981,49.757004 -31.235992,68.054001c-31.975006,32.013 -71.380005,45.432007 -92.008011,32.493011c-12.938995,-20.626007 0.47998,-59.996002 32.493027,-92.007996c18.298981,-18.298019 46.539978,-27.576004 68.053986,-31.236038c5.925995,-1.033997 11.917999,-1.651978 17.929016,-1.847992c1.921997,-0.052002 3.833984,0.287994 5.618988,0.998016c0.710999,1.78598 1.049011,3.697998 0.998993,5.617981zm0,0" fill="#2296f3" id="svg_16"/>
   <path d="m352.274597,268.236115c0,8.166626 -6.619659,14.786194 -14.785797,14.786194c-8.166656,0 -14.786224,-6.619568 -14.786224,-14.786194c0,-8.16626 6.619568,-14.786087 14.786224,-14.786087c8.166138,0 14.785797,6.619827 14.785797,14.786087zm0,0" fill="#cfd8dc" id="svg_17"/>
   <path d="m321.541443,310.059875c0,14.290375 -11.584473,25.876617 -25.876434,25.876617c-14.290741,0 -25.875366,-11.586243 -25.875366,-25.876617c0,-14.291962 11.584625,-25.876465 25.875366,-25.876465c14.291962,0 25.876434,11.584503 25.876434,25.876465zm0,0" fill="#cfd8dc" id="svg_18"/>
   <path d="m306.755188,310.059875c0,6.124146 -4.964783,11.08902 -11.090179,11.08902c-6.124207,0 -11.088959,-4.964874 -11.088959,-11.08902c0,-6.125763 4.964752,-11.09021 11.088959,-11.09021c6.125397,0 11.090179,4.964447 11.090179,11.09021zm0,0" fill="#607d8b" id="svg_19"/>
   <path d="m378.400177,242.371292c-0.197815,6.012299 -0.815613,12.002625 -1.84967,17.928665c-6.771729,-3.213501 -12.917847,-7.60643 -18.150055,-12.975662c-1.404419,-1.40448 -2.734375,-2.846191 -3.954712,-4.325195c-0.065826,-0.028778 -0.118225,-0.081177 -0.148895,-0.147217c-3.580414,-4.122131 -6.56723,-8.726532 -8.871887,-13.677856c5.926086,-1.033875 11.917999,-1.651581 17.928589,-1.847839c1.922089,-0.052429 3.834229,0.287659 5.619507,0.998383c5.797424,2.215057 9.572784,7.841583 9.427124,14.046722zm0,0" fill="#c52828" id="svg_20"/>
   <path d="m369.971619,233.942581c-0.19635,6.012329 -0.813995,12.002563 -1.849823,17.928589c-4.949219,-2.302979 -9.55368,-5.289764 -13.676056,-8.87207c-0.065826,-0.028778 -0.118225,-0.081177 -0.148895,-0.147217c-3.580414,-4.122131 -6.56723,-8.726532 -8.871887,-13.677856c5.926086,-1.033875 11.917999,-1.651581 17.928589,-1.847839c1.922089,-0.052429 3.834229,0.287659 5.619507,0.998383c0.710846,1.785278 1.049164,3.697418 0.998566,5.618011zm0,0" fill="#f44335" id="svg_21"/>
   <path d="m337.4888,286.719696c8.817657,0.008759 16.415466,-6.213715 18.143036,-14.860321c1.729828,-8.647278 -2.89151,-17.311172 -11.036041,-20.693832c-8.14447,-3.38089 -17.542725,-0.538086 -22.448212,6.790665c-4.904205,7.327209 -3.949951,17.099274 2.280701,23.340332c3.455627,3.479004 8.15799,5.431915 13.060516,5.423157zm-7.839966,-26.323334c2.7836,-2.883392 6.907257,-4.039246 10.783936,-3.025574c3.878845,1.015289 6.905945,4.04422 7.921417,7.921021c1.014984,3.876984 -0.142029,8.000641 -3.024139,10.784241c-4.389587,4.188141 -11.293427,4.188141 -15.681213,0c-4.330322,-4.3302 -4.330322,-11.349335 0,-15.679688zm0,0" id="svg_22"/>
   <path d="m295.665009,339.61734c14.095703,-0.012207 26.218292,-9.979095 28.957825,-23.804108c2.739899,-13.826752 -4.668579,-27.661743 -17.693176,-33.048126c-13.026489,-5.384186 -28.041138,-0.820496 -35.865509,10.902649s-6.279633,27.34082 3.690369,37.30423c5.54187,5.548462 13.066925,8.660553 20.910492,8.645355zm-15.684814,-45.238647c7.482635,-7.483093 19.207916,-8.638885 28.00705,-2.759949c8.79776,5.878479 12.219177,17.15332 8.169586,26.92926s-14.440979,15.33078 -24.819061,13.266602c-10.378113,-2.064636 -17.852051,-11.173431 -17.852051,-21.75473c-0.015594,-5.885315 2.323212,-11.530334 6.494476,-15.681183zm0,0" id="svg_23"/>
   <path d="m295.665009,324.842773c7.054535,0 13.127502,-4.983429 14.503357,-11.902527c1.374115,-6.919434 -2.32843,-13.847137 -8.84671,-16.546417c-6.518311,-2.69873 -14.03476,-0.41626 -17.952057,5.448792c-3.91925,5.86676 -3.147705,13.682922 1.842773,18.671631c2.765045,2.782043 6.529968,4.34021 10.452637,4.328522zm-5.225677,-20.009735c2.927582,-2.787231 7.525055,-2.787231 10.452545,0c2.88681,2.886749 2.88681,7.567017 0,10.454285c-2.92749,2.785004 -7.524963,2.785004 -10.452545,0c-2.88678,-2.887268 -2.88678,-7.567535 0,-10.454285zm0,0" id="svg_24"/>
   <path d="m167.692734,412.155182l25.876007,0l0,25.876953c-0.03299,3.207031 2.03299,6.058044 5.090973,7.024048c0.763031,0.250977 1.561035,0.374023 2.365021,0.369019c2.233978,-0.001038 4.34201,-1.034058 5.71402,-2.794067l19.872986,-20.355957c0.125977,-0.124023 0.239014,-0.255981 0.341003,-0.395996l7.117004,15.653992c1.178986,2.645996 3.811005,4.345032 6.709991,4.334045l0.020996,0c2.889008,0.017944 5.519989,-1.664063 6.712982,-4.296997l20.726028,-44.936035c0.209991,0.873993 0.354004,1.759979 0.433014,2.653992l-2.761017,33.429016c-0.011993,0.17395 -0.011993,0.349976 0,0.523987c0.158997,3.184998 2.363007,5.898987 5.447998,6.705994c0.652008,0.176025 1.325012,0.265991 2,0.265991c2.421997,0.01001 4.686005,-1.197998 6.027008,-3.214966l25.938995,-36.649048c3.07901,-4.600983 3.924011,-10.343964 2.303009,-15.638977l-5.460999,-17.919006c17.149994,-7.588989 32.690979,-18.389984 45.781982,-31.819c22.162018,-22.179993 29.943024,-56.381989 32.239014,-70.050995c1.070007,-6.094009 1.707001,-12.25502 1.906982,-18.440018c0.129028,-5.031006 -1.823975,-9.893982 -5.395996,-13.440979c-3.537994,-3.596008 -8.414001,-5.557007 -13.455994,-5.411011c-1.505005,0.039978 -3.065002,0.121002 -4.651001,0.230011c-4.615997,0.327972 -9.212982,0.88797 -13.773987,1.676971c-13.678009,2.315002 -47.904022,10.082031 -70.063995,32.24202c-13.394012,13.111023 -24.142044,28.673004 -31.662033,45.838013l-18.075989,-5.511993c-5.331024,-1.621002 -11.105988,-0.751007 -15.722015,2.365997l-36.481995,25.817993c-2.645996,1.760986 -3.867996,5.019012 -3.037003,8.087006s3.531006,5.260986 6.70401,5.446991c0.175003,0.011993 0.350998,0.011993 0.524994,0l33.435013,-2.769989c0.893982,0.078979 1.778992,0.225006 2.651001,0.432983l-44.952011,20.72702c-2.626007,1.209991 -4.304001,3.84198 -4.296005,6.733002c0.009003,2.891998 1.701004,5.514984 4.334,6.711975l15.671005,7.102997l2.694,2.529999l-2.987,-2.292999l-20.235001,18.112976c-2.807007,2.296997 -3.828003,6.133057 -2.533005,9.520996c0.841003,3.155029 3.641998,5.398071 6.906006,5.524048zm46.735992,-20.862c-1.174988,-1.093994 -2.790985,-1.57901 -4.371979,-1.317017l-3.109009,0l10.30899,-7.994995c1.199005,2.877991 3.472992,5.174011 6.339996,6.403015l-7.847992,9.610962l0,-2.429962c0.192993,-1.546021 -0.287994,-3.102997 -1.320007,-4.272003zm17.03299,-10.154999c-0.511963,0.35498 -1.091003,0.606995 -1.703979,0.738983c-1.667999,0.442017 -3.447021,-0.039001 -4.667999,-1.259979c-1.256012,-1.279999 -1.721008,-3.141022 -1.214996,-4.862c0.140015,-0.557007 0.390015,-1.080017 0.739014,-1.536011l16.059998,-21.889008c1.401978,2.709015 3.199982,5.194 5.335999,7.371002c2.162994,2.140991 4.630005,3.953003 7.317993,5.377991l-21.866028,16.059021zm-12.835999,-11.248016c-0.065002,0.085022 -0.093994,0.173004 -0.152985,0.257019l-11.906006,-5.417999l24.57901,-11.903015l-12.52002,17.063995zm17.239014,17.192017l16.794983,-12.324005l-11.664001,24.396027l-5.417969,-11.913025c0.087982,-0.052002 0.199982,-0.093018 0.286987,-0.158997zm64.692032,-4.218018c0.969971,3.141022 0.485992,6.550018 -1.320007,9.296997l-25.89801,36.596008l2.746002,-33.121002c0.014008,-0.173981 0.014008,-0.347992 0,-0.520996c-0.186005,-3.26001 -0.993011,-6.457001 -2.377991,-9.415009l-7.740021,-16.608978c2.161011,0.302002 4.34201,0.457001 6.526001,0.461975c7.757019,-0.134979 15.440002,-1.518982 22.756012,-4.102997l5.308014,17.414001zm63.750977,-151.779984c5.928009,0.304993 10.536011,5.27298 10.39502,11.205994c-0.018005,0.630981 -0.046997,1.356995 -0.084015,2.121979c0,0.165985 0,0.332001 -0.027985,0.502991c-0.044006,0.808014 -0.095001,1.670013 -0.165009,2.605011l0,0.184998c-0.06601,0.872986 -0.156006,1.812012 -0.256012,2.786987c-0.022003,0.22702 -0.043976,0.452026 -0.069,0.684021c-0.112,1.062012 -0.243988,2.17099 -0.399994,3.325989l0,0.127014c-4.628998,-2.757996 -8.889008,-6.095001 -12.674988,-9.929016c-3.837006,-3.776001 -7.177002,-8.02301 -9.944,-12.638977l0.050995,0c1.227997,-0.166016 2.395996,-0.303009 3.505005,-0.421997l0.457977,-0.046997c2.162018,-0.222015 4.085022,-0.371033 5.733002,-0.452026l0.445007,-0.021973c0.774994,-0.037018 1.507996,-0.06604 2.147003,-0.084015c0.29599,0.001007 0.592987,0.019989 0.886993,0.050018zm-84.328003,31.925003c19.364014,-19.359024 49.077026,-27.019028 63.425018,-29.706009c3.259003,6.140991 7.434998,11.75 12.382996,16.635986c4.884003,4.947998 10.493011,9.124008 16.634003,12.383011c-2.687012,14.334015 -10.351013,44.052002 -29.709015,63.423004c-13.002991,13.368011 -28.570984,23.973999 -45.772003,31.18399c-0.139984,0.006012 -0.278992,0.019012 -0.417999,0.041016c-0.205994,0.087982 -0.403992,0.195984 -0.590973,0.321991c-18.561005,7.044006 -35.210022,6.694 -44.695023,-2.802002c-8.070007,-8.070007 -9.749023,-21.829987 -4.721008,-38.738007c0.643005,-2.161987 1.393005,-4.343994 2.218018,-6.531006l0,-0.02597c7.130005,-17.380005 17.767014,-33.104004 31.245987,-46.186005zm-69.865005,66.645996l-33.099991,2.742981l36.482986,-25.835999c2.757019,-1.852997 6.20401,-2.359985 9.377991,-1.382996l17.617004,5.368011c-0.342987,1.036011 -0.738983,2.074982 -1.054993,3.105011c-2.724976,8.435974 -3.648987,17.346985 -2.714996,26.16098l-16.67099,-7.789001c-2.958008,-1.385986 -6.153992,-2.192993 -9.415009,-2.376007c-0.180023,-0.014984 -0.359009,-0.013 -0.537018,0.007019l0.015015,0zm-42.140991,73.192993l20.234985,-18.113007c2.118011,-1.552979 3.252014,-4.113007 2.981018,-6.725006c-0.27002,-2.612 -1.905029,-4.884979 -4.296021,-5.968994l-15.659988,-7.113007l51.21199,-23.623993l7.911011,3.696014l-27.016998,13.084991c-2.57901,1.251007 -4.203003,3.877014 -4.169006,6.742004s1.719025,5.451996 4.326019,6.639984l9.612,4.381012l-14.416016,11.182007c-0.102997,0.080994 -0.203003,0.167999 -0.296021,0.259003l-3.881958,3.72998c-1.079041,1.046997 -1.41803,2.644012 -0.854004,4.039001s1.914978,2.309052 3.419983,2.311005l11.274994,0l0,11.275024c0,1.598999 1.029022,3.015015 2.546021,3.510986c0.371002,0.124023 0.759979,0.186035 1.15097,0.186035c1.178009,0 2.286011,-0.561035 2.981995,-1.512085l14.788025,-18.378967l4.434998,9.777039c1.17099,2.616943 3.760986,4.304932 6.627991,4.32196c2.867004,0.005005 5.491028,-1.613953 6.769012,-4.180969l12.988998,-27.178009l3.775024,8.082001l-23.622025,51.205017l-7.115997,-15.656006c-1.065002,-2.341064 -3.269012,-3.960022 -5.821014,-4.276001c-2.552002,-0.315063 -5.084991,0.71698 -6.687988,2.72699l-19.872986,20.356995c-0.122009,0.126953 -0.233032,0.260986 -0.335999,0.402954l0,-27.649963c0.191986,-1.554993 -0.286011,-3.118958 -1.320007,-4.295959c-1.208008,-1.044067 -2.804016,-1.525024 -4.388,-1.324036l-27.256012,0c-0.343002,-0.588989 -0.354004,-1.315002 -0.029007,-1.914001l0.004013,0zm0,0" id="svg_25"/>
  </g>
 </g>
</svg>