<svg width="512.000073230808" height="512.000073230808" xmlns="http://www.w3.org/2000/svg">
 <defs>
  <linearGradient y2="0.5" x2="1" y1="0.5" x1="0" id="SVGID_1_">
   <stop offset="0" stop-color="rgb(0, 242, 254)"/>
   <stop offset="0.0208" stop-color="rgb(3, 239, 254)"/>
   <stop offset="0.2931" stop-color="rgb(36, 210, 254)"/>
   <stop offset="0.5538" stop-color="rgb(60, 189, 254)"/>
   <stop offset="0.7956" stop-color="rgb(74, 176, 254)"/>
   <stop offset="1" stop-color="rgb(79, 172, 254)"/>
  </linearGradient>
 </defs>
 <g>
  <title>background</title>
  <rect height="402" width="582" y="-1" x="-1" fill="none" id="canvas_background"/>
 </g>
 <g>
  <title>Layer 1</title>
  <path d="m398.334991,379l-15.334991,0c-11.04599,0 -20,-8.95401 -20,-20s8.95401,-20 20,-20l15.334991,0c5.371002,0 10.761993,-0.609009 16.020996,-1.80899l0.210999,-0.048004c33.809021,-7.714996 57.433014,-37.382996 57.433014,-72.143005c0,-27.457993 -15.088013,-52.522995 -39.376007,-65.414001c-6.536987,-3.468994 -10.623993,-10.264999 -10.623993,-17.666l0,-23.162994c0,-26.387009 -10.420013,-51.216003 -29.341003,-69.914001c-18.470001,-18.251999 -42.643005,-28.129002 -68.151001,-27.836002c-47.248993,0.560001 -86.784988,34.803997 -94.007996,81.424c-1.188004,7.666 -6.701996,13.953003 -14.145996,16.132004c-7.449005,2.179993 -15.479004,-0.145004 -20.612,-5.959c-9.317001,-10.556 -22.706009,-16.604004 -36.74501,-16.604004c-0.030991,0 -0.060989,0 -0.091995,0c-26.966003,0.050995 -48.904999,22.451004 -48.904999,49.934006l0,35.065994c0,11.046005 -8.954002,20 -20,20l-0.153999,0c-27.486,0 -49.846001,21.981995 -49.846001,49c0,27.47699 21.084,49 48,49l42,0c11.046005,0 20,8.95401 20,20s-8.953995,20 -20,20l-42,0c-23.865997,0 -46.118999,-9.312988 -62.66,-26.225006c-16.341001,-16.708008 -25.34,-39.001007 -25.34,-62.774994c0,-42.320007 29.978001,-77.837006 70,-86.811996l0,-17.253998c0,-49.498001 39.849998,-89.842003 88.830002,-89.934006c0.054993,0 0.110992,0 0.166,0c14.222992,0 28.074005,3.412003 40.477997,9.750999c7.973999,-19.477997 20.434006,-37.031998 36.511993,-51.089001c24.381012,-21.316998 55.649994,-33.268999 88.048004,-33.651999c36.227997,-0.438 70.608002,13.556002 96.742004,39.381998c26.583008,26.271004 41.223999,61.204002 41.223999,98.365005l0,11.889999c31.118988,21.091003 50,56.222 50,94.354004c0,25.975983 -8.971985,51.393005 -25.261993,71.570007c-16.040009,19.866974 -38.516022,33.92099 -63.289001,39.573975l-0.209991,0.048004c-8.15802,1.860992 -16.542999,2.807007 -24.904022,2.807007z" fill="url(#SVGID_1_)" id="svg_1"/>
  <g id="svg_76">
   <g transform="matrix(0.74734, 0, 0, 0.795841, -654.557, -430.599)" id="svg_57">
    <path d="m1420.450562,751.645935c-2.312988,-1.661011 -5.323975,-1.994995 -7.945068,-0.883057l-447.116943,180.436035l-52.966003,21.97998l160.043884,64.794189l0.177246,0l0,0.087891l42.813965,149.450867c0.861816,3.009033 3.253906,5.336182 6.284668,6.117188c3.03125,0.780029 6.249023,-0.103027 8.457031,-2.321045l89.15918,-91.188965l120.320068,47.315918c4.958984,2.0271 10.573975,1.660889 15.228027,-0.99292c4.652832,-2.654053 7.826904,-7.301025 8.606934,-12.601074l60.733887,-353.015076c0.781006,-3.552979 -0.733887,-7.216919 -3.796875,-9.179932zm-259.267334,304.816101l0.177246,-0.618164l0.265137,0.088135l-0.442383,0.530029z" fill="#f3d55b" id="svg_58"/>
    <path d="m1219.357544,1080.119995l-89.15918,91.188965c1.039063,-1.131104 1.795898,-2.491943 2.207031,-3.971924l28.777832,-110.874023l0.441406,-0.530029l38.312012,16.065918l17.125977,7.239014l2.294922,0.88208z" fill="#f29c1f" id="svg_59"/>
    <path d="m1421.103638,752.121887l-259.478027,303.81012l-0.265137,-0.088135l-0.177246,0.618164l-28.777832,110.874023c-0.411133,1.47998 -1.166992,2.84082 -2.207031,3.971924c-2.208008,2.218018 -5.425781,3.101074 -8.457031,2.321045c-3.030762,-0.780029 -5.421875,-3.108154 -6.284668,-6.117188l-42.814453,-149.450867l0,-0.087891l-0.087891,0l0,-0.088135l348.549316,-265.763062z" fill="#f0c419" id="svg_60"/>
   </g>
   <g transform="matrix(0.74734, 0, 0, 0.795841, -654.557, -430.599)" id="svg_61"/>
   <g transform="matrix(0.74734, 0, 0, 0.795841, -654.557, -430.599)" id="svg_62"/>
   <g transform="matrix(0.74734, 0, 0, 0.795841, -654.557, -430.599)" id="svg_63"/>
   <g transform="matrix(0.74734, 0, 0, 0.795841, -654.557, -430.599)" id="svg_64"/>
   <g transform="matrix(0.74734, 0, 0, 0.795841, -654.557, -430.599)" id="svg_65"/>
   <g transform="matrix(0.74734, 0, 0, 0.795841, -654.557, -430.599)" id="svg_66"/>
   <g transform="matrix(0.74734, 0, 0, 0.795841, -654.557, -430.599)" id="svg_67"/>
   <g transform="matrix(0.74734, 0, 0, 0.795841, -654.557, -430.599)" id="svg_68"/>
   <g transform="matrix(0.74734, 0, 0, 0.795841, -654.557, -430.599)" id="svg_69"/>
   <g transform="matrix(0.74734, 0, 0, 0.795841, -654.557, -430.599)" id="svg_70"/>
   <g transform="matrix(0.74734, 0, 0, 0.795841, -654.557, -430.599)" id="svg_71"/>
   <g transform="matrix(0.74734, 0, 0, 0.795841, -654.557, -430.599)" id="svg_72"/>
   <g transform="matrix(0.74734, 0, 0, 0.795841, -654.557, -430.599)" id="svg_73"/>
   <g transform="matrix(0.74734, 0, 0, 0.795841, -654.557, -430.599)" id="svg_74"/>
   <g transform="matrix(0.74734, 0, 0, 0.795841, -654.557, -430.599)" id="svg_75"/>
  </g>
 </g>
</svg>