<svg height="512pt" viewBox="0 0 512.17005 512" width="512pt" xmlns="http://www.w3.org/2000/svg"><path d="m239.089844 281.703125-16.296875-3.328125-79.191407-16.042969-121.769531 56.234375c-1.722656.730469-3.117187 2.066406-3.925781 3.753906-1.136719 2.054688-1.355469 4.488282-.609375 6.710938s2.390625 4.03125 4.535156 4.980469l21.929688 9.984375 14.25 6.484375c2.773437 1.246093 4.675781 3.875 4.992187 6.898437.316406 3.023438-1 5.988282-3.457031 7.78125l-47.359375 42.324219c-.410156.324219-.78125.699219-1.109375 1.109375-5.117187 5.460938-1.621094 18.175781 6.144531 18.175781h63.660156c4.691407 0 4.605469-.085937 4.605469 4.609375v63.65625c-.011719 3.707032 2.367188 6.996094 5.890625 8.144532 3.523438 1.148437 7.382813-.109376 9.554688-3.109376l46.167968-47.359374c.796876-1.003907 1.78125-1.84375 2.898438-2.476563l9.984375 21.933594c.972656 2.144531 2.792969 3.792969 5.023437 4.550781 2.226563.761719 4.671876.5625 6.753907-.542969l6.484375 14.253907c1.40625 2.992187 4.417968 4.902343 7.722656 4.902343 3.308594 0 6.316406-1.910156 7.722656-4.902343l56.234375-121.773438zm0 0" fill="#fec108"/><path d="m150 450.234375c-1.117188.632813-2.101562 1.472656-2.898438 2.476563l-46.167968 47.359374c-2.171875 3-6.03125 4.257813-9.554688 3.109376-3.523437-1.148438-5.902344-4.4375-5.890625-8.144532v-16.042968l43.4375-44.457032c1.792969-2.457031 4.753907-3.773437 7.78125-3.457031 3.023438.316406 5.648438 2.21875 6.894531 4.992187zm0 0" fill="#ff9801"/><path d="m249.925781 368.65625-56.234375 121.773438c-1.40625 2.992187-4.414062 4.902343-7.722656 4.902343-3.304688 0-6.316406-1.910156-7.722656-4.902343l-6.484375-14.253907c1.652343-.855469 2.972656-2.234375 3.753906-3.925781l56.148437-121.769531-8.871093-72.105469 16.296875 3.328125zm0 0" fill="#ff9801"/><path d="m231.664062 350.480469-56.148437 121.769531c-.78125 1.691406-2.101563 3.070312-3.753906 3.925781l-9.984375-21.929687c-.972656-2.144532-2.789063-3.792969-5.019532-4.550782-2.230468-.761718-4.675781-.566406-6.757812.539063l-6.398438-14.164063c-1.246093-2.773437-3.871093-4.675781-6.894531-4.992187-3.027343-.316406-5.988281 1-7.78125 3.457031l-43.4375 44.457032v-47.613282c0-4.695312.085938-4.609375-4.605469-4.609375h-63.660156c-7.765625 0-11.261718-12.714843-6.144531-18.175781.328125-.410156.699219-.785156 1.109375-1.109375l47.359375-42.324219c2.457031-1.792968 3.773437-4.757812 3.457031-7.78125-.316406-3.023437-2.21875-5.652344-4.992187-6.898437l-14.25-6.484375-21.929688-9.984375c-2.144531-.949219-3.789062-2.757813-4.535156-4.980469s-.527344-4.65625.609375-6.710938c.808594-1.6875 2.203125-3.023437 3.925781-3.753906l121.769531-56.234375 79.191407 16.042969zm0 0" fill="#fec108"/><path d="m171.761719 476.175781c-2.082031 1.105469-4.527344 1.304688-6.753907.542969-2.230468-.757812-4.050781-2.40625-5.023437-4.550781l-9.984375-21.933594c2.082031-1.105469 4.527344-1.300781 6.757812-.539063 2.230469.757813 4.046876 2.40625 5.019532 4.550782zm0 0" fill="#fec108"/><path d="m185.925781 278.058594-82.6875 40.105468c-2.972656 1.445313-4.847656 4.480469-4.804687 7.785157.042968 3.308593 1.992187 6.292969 5 7.660156l35.046875 15.933594-44.03125 35.5c-1.414063 1.132812-1.957031 3.035156-1.351563 4.746093.601563 1.710938 2.21875 2.851563 4.03125 2.847657h17.851563c1.230469-.003907 2.414062.484375 3.285156 1.355469.871094.871093 1.359375 2.054687 1.359375 3.285156v17.851562c-.007812 1.8125 1.136719 3.429688 2.84375 4.035156 1.710938.601563 3.613281.058594 4.75-1.355468l35.488281-44.03125 15.933594 35.070312c1.367187 3.011719 4.351563 4.960938 7.660156 5.003906 3.304688.042969 6.339844-1.832031 7.785157-4.804687l40.105468-82.6875zm0 0" fill="#f57c00"/><path d="m332.101562 365.160156-15.015624-49.066406-17.066407-17.070312-103.851562-103.847657-49.066407-15.019531c-9.796874-2.957031-20.402343-1.394531-28.929687 4.265625l-80.382813 56.917969-4.011718 2.816406c-3.050782 2.039062-4.457032 5.804688-3.492188 9.34375.96875 3.542969 4.09375 6.066406 7.757813 6.273438l77.738281-6.402344c6.472656.355468 12.816406 1.949218 18.691406 4.695312l51.710938 24.0625 2.558594 1.28125 23.039062 23.039063 17.070312 17.066406 1.277344 2.558594 24.066406 51.714843c2.742188 5.871094 4.335938 12.214844 4.691407 18.6875l-5.035157 60.925782-1.363281 16.8125c.203125 3.664062 2.726563 6.789062 6.269531 7.757812 3.542969.96875 7.304688-.4375 9.34375-3.492187l59.734376-84.394531c5.660156-8.523438 7.226562-19.128907 4.265624-28.925782zm0 0" fill="#f44335"/><path d="m327.835938 394.085938-59.734376 84.394531c-2.039062 3.054687-5.800781 4.460937-9.34375 3.492187-3.542968-.96875-6.066406-4.09375-6.269531-7.757812l1.363281-16.8125 56.917969-80.382813c5.660157-8.523437 7.226563-19.128906 4.265625-28.925781l-15.015625-49.070312 17.066407 17.070312 15.015624 49.066406c2.960938 9.796875 1.394532 20.402344-4.265624 28.925782zm0 0" fill="#c52828"/><path d="m310.769531 377.019531-56.917969 80.382813 5.035157-60.925782c-.355469-6.472656-1.949219-12.816406-4.691407-18.6875l-24.066406-51.714843-1.277344-2.558594-17.070312-17.066406-23.039062-23.039063-2.558594-1.28125-51.710938-24.0625c-5.875-2.746094-12.21875-4.339844-18.691406-4.695312l-77.738281 6.402344c-3.664063-.207032-6.789063-2.730469-7.757813-6.273438-.964844-3.539062.441406-7.304688 3.492188-9.34375l4.011718-2.816406 80.382813-56.917969c8.527344-5.660156 19.132813-7.222656 28.929687-4.265625l49.066407 15.019531 103.851562 103.847657 15.015625 49.070312c2.960938 9.796875 1.394532 20.402344-4.265625 28.925781zm0 0" fill="#f44335"/><path d="m232.261719 324.523438-2.167969 1.570312-60.585938 44.371094c-7.898437 5.839844-18.882812 5.019531-25.828124-1.925782-6.949219-6.949218-7.769532-17.929687-1.929688-25.832031l44.375-60.585937 1.570312-2.167969zm0 0" fill="#f44335"/><path d="m503.625 43.367188c-.457031 13.878906-1.882812 27.707031-4.269531 41.386718-8.445313 49.664063-29.867188 114.859375-72.105469 157.097656-79.957031 79.957032-179.882812 109.738282-223.230469 66.390626-3.273437-3.277344-6.164062-6.914063-8.621093-10.839844-29.867188-47.613282 1.109374-138.496094 75.007812-212.394532 42.242188-42.238281 107.433594-63.65625 157.097656-72.105468 13.679688-2.386719 27.511719-3.8125 41.386719-4.265625 4.4375-.121094 8.851563.664062 12.972656 2.304687 13.382813 5.113282 22.097657 18.101563 21.761719 32.425782zm0 0" fill="#0377bc"/><path d="m484.167969 23.910156c-.453125 13.878906-1.878907 27.707032-4.269531 41.386719-8.445313 49.664063-29.863282 114.859375-72.105469 157.097656-73.8125 73.898438-164.777344 104.875-212.394531 75.007813-29.867188-47.613282 1.109374-138.496094 75.007812-212.394532 42.242188-42.238281 107.433594-63.65625 157.097656-72.105468 13.679688-2.386719 27.511719-3.8125 41.386719-4.265625 4.4375-.121094 8.851563.664062 12.972656 2.304687 1.640625 4.121094 2.421875 8.535156 2.304688 12.96875zm0 0" fill="#2296f3"/><path d="m443.316406 103.074219c0 18.851562-15.28125 34.132812-34.132812 34.132812-18.851563 0-34.132813-15.28125-34.132813-34.132812 0-18.851563 15.28125-34.132813 34.132813-34.132813 18.851562 0 34.132812 15.28125 34.132812 34.132813zm0 0" fill="#cfd8dc"/><path d="m372.371094 199.621094c0 32.988281-26.742188 59.734375-59.734375 59.734375-32.988281 0-59.730469-26.746094-59.730469-59.734375 0-32.992188 26.742188-59.734375 59.730469-59.734375 32.992187 0 59.734375 26.742187 59.734375 59.734375zm0 0" fill="#cfd8dc"/><path d="m338.238281 199.621094c0 14.136718-11.460937 25.597656-25.601562 25.597656-14.136719 0-25.597657-11.460938-25.597657-25.597656 0-14.140625 11.460938-25.601563 25.597657-25.601563 14.140625 0 25.601562 11.460938 25.601562 25.601563zm0 0" fill="#607d8b"/><path d="m503.625 43.367188c-.457031 13.878906-1.882812 27.707031-4.269531 41.386718-15.632813-7.417968-29.820313-17.558594-41.898438-29.953125-3.242187-3.242187-6.3125-6.570312-9.128906-9.984375-.152344-.066406-.273437-.1875-.34375-.339844-8.265625-9.515624-15.160156-20.144531-20.480469-31.574218 13.679688-2.386719 27.511719-3.8125 41.386719-4.265625 4.4375-.121094 8.851563.664062 12.972656 2.304687 13.382813 5.113282 22.097657 18.101563 21.761719 32.425782zm0 0" fill="#c52828"/><path d="m484.167969 23.910156c-.453125 13.878906-1.878907 27.707032-4.269531 41.386719-11.425782-5.316406-22.054688-12.210937-31.570313-20.480469-.152344-.066406-.273437-.1875-.34375-.339844-8.265625-9.515624-15.160156-20.144531-20.480469-31.574218 13.679688-2.386719 27.511719-3.8125 41.386719-4.265625 4.4375-.121094 8.851563.664062 12.972656 2.304687 1.640625 4.121094 2.421875 8.535156 2.304688 12.96875zm0 0" fill="#f44335"/><path d="m409.183594 145.742188c20.355468.019531 37.894531-14.34375 41.882812-34.304688 3.992188-19.960938-6.675781-39.960938-25.476562-47.769531-18.800782-7.804688-40.496094-1.242188-51.820313 15.675781-11.320312 16.914062-9.117187 39.472656 5.265625 53.878906 7.976563 8.03125 18.832032 12.539063 30.148438 12.519532zm-18.097656-60.765626c6.425781-6.65625 15.945312-9.324218 24.894531-6.984374 8.953125 2.34375 15.941406 9.335937 18.285156 18.285156 2.34375 8.949218-.328125 18.46875-6.980469 24.894531-10.132812 9.667969-26.070312 9.667969-36.199218 0-9.996094-9.996094-9.996094-26.199219 0-36.195313zm0 0"/><path d="m312.636719 267.851562c32.539062-.027343 60.523437-23.035156 66.847656-54.949218 6.324219-31.917969-10.777344-63.855469-40.84375-76.289063-30.070313-12.429687-64.730469-1.894531-82.792969 25.167969s-14.496094 63.113281 8.519532 86.113281c12.792968 12.808594 30.164062 19.992188 48.269531 19.957031zm-36.207031-104.429687c17.273437-17.273437 44.339843-19.941406 64.652343-6.371094 20.308594 13.570313 28.207031 39.597657 18.859375 62.164063s-33.335937 35.390625-57.292968 30.625c-23.957032-4.765625-41.210938-25.792969-41.210938-50.21875-.035156-13.585938 5.363281-26.617188 14.992188-36.199219zm0 0"/><path d="m312.636719 233.746094c16.285156 0 30.304687-11.503906 33.480469-27.476563 3.171874-15.972656-5.375-31.964843-20.421876-38.195312-15.046874-6.230469-32.398437-.960938-41.441406 12.578125-9.046875 13.542968-7.265625 31.585937 4.253906 43.101562 6.382813 6.421875 15.074219 10.019532 24.128907 9.992188zm-12.0625-46.191406c6.757812-6.433594 17.371093-6.433594 24.128906 0 6.664063 6.664062 6.664063 17.46875 0 24.132812-6.757813 6.429688-17.371094 6.429688-24.128906 0-6.664063-6.664062-6.664063-17.46875 0-24.132812zm0 0"/><path d="m17.222656 435.300781h59.734375v59.734375c-.078125 7.402344 4.691407 13.984375 11.75 16.214844 1.761719.578125 3.605469.863281 5.460938.851562 5.15625-.003906 10.023437-2.386718 13.191406-6.449218l45.875-46.992188c.289063-.285156.550781-.589844.785156-.914062l16.429688 36.136718c2.722656 6.109376 8.796875 10.03125 15.488281 10.003907h.050781c6.667969.042969 12.742188-3.839844 15.496094-9.917969l47.84375-103.730469c.484375 2.015625.816406 4.0625 1 6.125l-6.375 77.167969c-.027344.402344-.027344.808594 0 1.210938.367187 7.351562 5.457031 13.617187 12.578125 15.480468 1.503906.40625 3.058594.613282 4.617188.613282 5.589843.023437 10.816406-2.765626 13.910156-7.421876l59.878906-84.601562c7.109375-10.621094 9.058594-23.878906 5.316406-36.101562l-12.605468-41.363282c39.589843-17.519531 75.464843-42.453125 105.683593-73.453125 51.160157-51.199219 69.121094-130.152343 74.421875-161.707031 2.46875-14.066406 3.941406-28.289062 4.402344-42.566406.296875-11.613282-4.210938-22.839844-12.457031-31.027344-8.167969-8.300781-19.421875-12.828125-31.0625-12.492188-3.472657.09375-7.074219.28125-10.734375.53125-10.65625.757813-21.269532 2.050782-31.796875 3.871094-31.574219 5.34375-110.582031 23.273438-161.738281 74.429688-30.917969 30.265625-55.730469 66.1875-73.089844 105.8125l-41.726563-12.722656c-12.304687-3.742188-25.636719-1.734376-36.292969 5.460937l-84.214843 59.597656c-6.109375 4.066407-8.929688 11.585938-7.011719 18.667969s8.152344 12.144531 15.476562 12.574219c.402344.027343.808594.027343 1.210938 0l77.183594-6.394531c2.0625.183593 4.105468.519531 6.117187 1l-103.765625 47.847656c-6.0625 2.792968-9.9375 8.867187-9.917968 15.542968.019531 6.675782 3.925781 12.730469 10.003906 15.492188l36.175781 16.398438 6.21875 5.839843-6.894531-5.292969-46.710938 41.8125c-6.480468 5.300782-8.835937 14.15625-5.847656 21.976563 1.941406 7.285156 8.40625 12.460937 15.941406 12.753906zm107.886719-48.160156c-2.710937-2.523437-6.441406-3.644531-10.09375-3.039063h-7.175781l23.796875-18.457031c2.769531 6.644531 8.019531 11.945313 14.636719 14.78125l-18.117188 22.1875v-5.609375c.445312-3.570312-.664062-7.164062-3.046875-9.863281zm39.320313-23.441406c-1.183594.820312-2.519532 1.402343-3.933594 1.707031-3.851563 1.019531-7.957032-.089844-10.777344-2.910156-2.898438-2.953125-3.972656-7.25-2.804688-11.222656.324219-1.285157.902344-2.492188 1.707032-3.546876l37.074218-50.527343c3.234376 6.253906 7.386719 11.988281 12.316407 17.015625 4.992187 4.941406 10.6875 9.125 16.894531 12.414062zm-29.632813-25.964844c-.148437.195313-.214844.398437-.351563.59375l-27.484374-12.507813 56.738281-27.476562zm39.796875 39.6875 38.769531-28.449219-26.925781 56.316406-12.507812-27.5c.203124-.121093.460937-.214843.664062-.367187zm149.335938-9.738281c2.238281 7.25 1.121093 15.121094-3.046876 21.460937l-59.785156 84.480469 6.339844-76.457031c.03125-.402344.03125-.804688 0-1.203125-.429688-7.527344-2.292969-14.90625-5.488281-21.734375l-17.867188-38.339844c4.988281.695313 10.023438 1.054687 15.0625 1.066406 17.90625-.3125 35.644531-3.507812 52.53125-9.472656zm147.164062-350.371094c13.683594.703125 24.320312 12.171875 23.996094 25.867188-.042969 1.457031-.109375 3.132812-.195313 4.898437 0 .382813 0 .765625-.0625 1.160156-.101562 1.867188-.21875 3.855469-.382812 6.015625v.425782c-.152344 2.015624-.359375 4.183593-.589844 6.433593-.050781.523438-.101563 1.042969-.160156 1.578125-.257813 2.453125-.5625 5.011719-.921875 7.679688v.292968c-10.6875-6.367187-20.519532-14.070312-29.261719-22.921874-8.855469-8.714844-16.566406-18.519532-22.953125-29.175782h.117188c2.835937-.382812 5.53125-.699218 8.089843-.972656l1.058594-.109375c4.992187-.511719 9.429687-.855469 13.234375-1.042969l1.027344-.050781c1.789062-.085937 3.480468-.152344 4.957031-.195313.683594.003907 1.367187.046876 2.046875.117188zm-194.664062 73.695312c44.699218-44.6875 113.289062-62.371093 146.410156-68.574218 7.523437 14.175781 17.164062 27.125 28.585937 38.402344 11.273438 11.421874 24.222657 21.0625 38.398438 28.585937-6.203125 33.089844-23.894531 101.691406-68.582031 146.40625-30.015626 30.859375-65.953126 55.34375-105.660157 71.988281-.324219.011719-.644531.042969-.964843.09375-.476563.203125-.933594.453125-1.363282.742188-42.847656 16.261718-81.28125 15.453125-103.175781-6.46875-18.628906-18.628906-22.503906-50.390625-10.898437-89.421875 1.484374-4.992188 3.214843-10.027344 5.121093-15.078125v-.058594c16.457031-40.121094 41.011719-76.417969 72.128907-106.617188zm-161.277344 153.847657-76.410156 6.332031 84.21875-59.640625c6.363281-4.277344 14.320312-5.449219 21.648437-3.191406l40.667969 12.390625c-.792969 2.390625-1.707032 4.789062-2.4375 7.167968-6.289063 19.472657-8.421875 40.042969-6.265625 60.390626l-38.484375-17.980469c-6.828125-3.199219-14.207032-5.0625-21.734375-5.484375-.414063-.035156-.828125-.03125-1.238281.015625zm-97.28125 168.960937 46.710937-41.8125c4.890625-3.585937 7.507813-9.496094 6.882813-15.523437-.625-6.03125-4.398438-11.277344-9.917969-13.78125l-36.148437-16.417969 118.21875-54.535156 18.261718 8.53125-62.367187 30.207031c-5.953125 2.886719-9.703125 8.949219-9.625 15.5625s3.96875 12.585937 9.988281 15.328125l22.1875 10.113281-33.277344 25.8125c-.238281.1875-.46875.386719-.683594.597657l-8.960937 8.609374c-2.492187 2.417969-3.273437 6.105469-1.972656 9.324219s4.421875 5.332031 7.894531 5.335938h26.027344v26.027343c0 3.691407 2.375 6.960938 5.878906 8.105469.855469.285157 1.753906.429688 2.65625.429688 2.71875 0 5.277344-1.296875 6.882812-3.492188l34.136719-42.425781 10.238281 22.570312c2.703126 6.039063 8.683594 9.9375 15.300782 9.976563 6.617187.011719 12.675781-3.726563 15.625-9.652344l29.984375-62.738281 8.714843 18.65625-54.53125 118.203125-16.425781-36.140625c-2.457031-5.402344-7.546875-9.140625-13.4375-9.871094-5.890625-.726562-11.738281 1.65625-15.4375 6.296875l-45.875 46.992188c-.28125.292969-.539062.601562-.777343.929687v-63.828125c.445312-3.589843-.660157-7.199219-3.046876-9.917969-2.789062-2.410156-6.472656-3.519531-10.128906-3.054687h-62.917968c-.792969-1.359375-.816407-3.035156-.066407-4.417969zm0 0"/></svg>