<?xml version="1.0" encoding="iso-8859-1"?>
<!-- Generator: Adobe Illustrator 18.0.0, SVG Export Plug-In . SVG Version: 6.00 Build 0)  -->
<!DOCTYPE svg PUBLIC "-//W3C//DTD SVG 1.1//EN" "http://www.w3.org/Graphics/SVG/1.1/DTD/svg11.dtd">
<svg version="1.1" id="Capa_1" xmlns="http://www.w3.org/2000/svg" xmlns:xlink="http://www.w3.org/1999/xlink" x="0px" y="0px"
	 viewBox="0 0 470.715 470.715" style="enable-background:new 0 0 470.715 470.715;" xml:space="preserve">
<path d="M361.609,103.775c-0.754-11.111-7.525-30.216-28.825-30.216c-2.094,0-4.311,0.187-6.591,0.554
	c-27.155,4.38-50.721,5.684-55.682,5.921l-63.311-41.896c-1.653-1.094-3.298-2.264-4.888-3.395
	c-4.902-3.491-22.785-12.985-82.818-25.721c-1.984-0.421-3.823-1.399-5.32-2.833l-0.272-0.258C109.83,2.106,104.454,0,98.765,0
	c-1.25,0-2.51,0.105-3.744,0.312L73.913,3.838c-4.635,0.773-8.347,4.052-9.687,8.556c-1.341,4.504-0.026,9.278,3.431,12.461
	l2.379,2.189c3.642,3.353,8.159,5.485,13.064,6.17c1.588,0.222,3.141,0.398,4.674,0.551c2.811,1.734,13.131,7.789,20.92,8.279
	c9.127,6.076,50.565,28.206,78.685,33.052c5.297,0.913,10.236,3.607,13.998,7.582c-1.389,2.642-2.889,5.621-4.367,8.795
	c-6.861,14.736-9.649,25.891-8.287,33.154c1.619,8.638,7.445,16.636,15.983,21.944c6.675,4.15,14.357,6.267,22.426,6.267
	c0.588,0,1.178-0.013,1.77-0.036c-3.147,5.841-8.068,17.829-8.068,35.71c0,25.542,14.322,49.542,14.933,50.552
	c0.549,0.908,1.528,1.448,2.566,1.448c0.16,0,0.32-0.013,0.481-0.039c1.209-0.196,2.177-1.106,2.446-2.302
	c0.33-1.467,8.083-36.102,7.067-51.852c-0.83-12.87-7.74-28.628-10.603-34.673c0.935-0.207,1.871-0.436,2.808-0.698
	c9.645-2.893,16.547-11.927,19.719-20.39c0.687,0.424,1.362,0.822,2.015,1.168c2.448,1.297,24.478,13.038,43.679,25.913
	c25.983,17.424,26.189,23.208,26.049,24.028c-3.009,4.36-30.088,44.941-10.698,65.306c-2.428,8.388-6.517,20.309-10.479,31.861
	c-4.71,13.732-9.167,26.728-10.91,33.894c-11.081,13.906-29.934,39.768-35.146,60.619c-2.815,11.258-9.085,27.748-14.617,42.297
	c-2.501,6.576-4.862,12.788-6.602,17.739c-2.904,8.274-1.749,17.57-1.699,17.962c0.005,0.037,0.011,0.073,0.017,0.109
	c0.716,4.292,3.716,7.822,7.83,9.215c11.474,3.884,35.959,10.045,52.817,10.045c0.001,0,0,0,0.001,0
	c8.057,0,13.599-1.372,16.921-4.191c1.597-1.013,2.622-2.996,2.772-5.411c0.248-3.982-1.945-7.919-5.866-10.533
	c-2.011-1.341-4.311-2.565-6.52-3.613c1.204-0.954,2.063-2.327,2.365-3.929c0.54-2.851-0.823-5.675-3.391-7.027l-24.335-12.807
	c9.327-10.561,40.879-46.746,47.899-60.786c7.605-15.212,23.054-27.888,23.273-28.067c0.523-0.45,12.964-11.244,25.428-30.255
	c11.086-16.908,24.117-43.613,24.616-76.196c0.019-1.237,0.197-5.946,0.336-7.318C407.806,202.681,412.57,155.289,361.609,103.775z
	 M237.116,228.706c-4.167-8.781-10.282-24.364-10.282-40.193c0-15.323,3.938-25.977,6.71-31.577
	c3.082,6.903,8.139,19.585,8.796,29.77C243.012,197.137,239.38,217.39,237.116,228.706z M188.398,69.184
	c-27.607-4.759-70.19-27.697-76.983-32.55c-0.509-0.363-1.119-0.559-1.744-0.559c-2.207,0-5.02-0.802-7.848-1.915
	c1.416-0.085,2.786-0.203,4.069-0.376c4.592-0.62,9.446,0.31,13.699,2.616c18.284,9.92,55.075,28.09,76.991,33.268
	c3.44,0.812,6.669,2.401,9.458,4.584c-0.469,0.802-1.036,1.79-1.673,2.924C199.915,73.016,194.337,70.207,188.398,69.184z
	 M238.862,145.186c-11.126,3.115-22.131,1.797-30.988-3.71c-7.009-4.356-11.964-11.068-13.255-17.954
	c-2.035-10.854,9.24-33.46,15.805-44.889c15.229,18.693,31.919,38.278,44.732,48.325
	C252.847,134.361,247.057,142.727,238.862,145.186z M214.644,74.314c-4.254-5.227-10.178-8.95-16.683-10.486
	c-21.301-5.032-57.486-22.923-75.509-32.701c-5.363-2.911-11.524-4.08-17.364-3.288c-2.254,0.304-4.785,0.458-7.525,0.458
	c-4.107,0-8.821-0.354-13.635-1.026c-3.69-0.515-7.09-2.119-9.829-4.641l-2.378-2.189c-1.784-1.643-2.437-4.011-1.745-6.335
	c0.692-2.324,2.533-3.95,4.925-4.35l21.108-3.526C96.919,6.077,97.846,6,98.765,6c4.156,0,8.073,1.529,11.038,4.313l0.226,0.213
	c2.301,2.203,5.144,3.713,8.221,4.365c60.587,12.854,76.997,22.184,80.584,24.739c1.632,1.161,3.319,2.361,5.058,3.511
	l60.951,40.336c0,0,4.9,3.337,6.744,4.422c3.304,1.945,8.237,4.329,12.571,4.329c0.743,0,1.469-0.07,2.164-0.225
	c1.617-0.359,2.638-1.962,2.278-3.579c-0.359-1.618-1.964-2.634-3.579-2.278c-1.198,0.264-2.878-0.058-4.706-0.705
	c3.756-0.271,8.377-0.647,13.636-1.158c4.196,2.37,24.768,14.989,17.037,30.451c-7.818,15.637-20.79,21.936-24.746,23.553
	c-7.964-4.679-15.487-8.855-21.167-11.862C250.985,118.965,225.518,87.676,214.644,74.314z M337.124,184.803
	c0.095-0.135,0.179-0.277,0.25-0.426c2.184-4.535,0.965-12.239-28.086-31.721c-5.314-3.563-11.081-7.19-16.808-10.652
	c6.417-3.358,16.891-10.62,23.875-24.587c7.088-14.177-2.934-26.734-12.865-34.142c7.267-0.83,15.292-1.888,23.659-3.238
	c1.965-0.317,3.86-0.478,5.636-0.478c21.518,0,22.824,23.982,22.885,25.545c-0.009,2.725-1.233,4.775-2.263,6.016
	c-1.059,1.275-0.882,3.167,0.392,4.225c0.561,0.465,1.239,0.691,1.914,0.691c0.862,0,1.718-0.369,2.311-1.084
	c0.985-1.187,1.766-2.469,2.358-3.813c45.739,48.276,41.341,92.076,39.656,108.84c-0.076,0.761-0.148,1.47-0.21,2.127
	c-50.62,23.919-72.705-12.255-73.644-13.85c-0.214-0.365-0.509-0.949-0.853-1.6C330.225,194.726,336.982,185.004,337.124,184.803z
	 M322.737,213.853c1.002,1.36,2.446,3.157,4.346,5.143c-2.921,5.518-4.925,11.627-5.269,17.677
	C319.288,229.984,320.308,221.764,322.737,213.853z M305.013,315.949c0.281-0.352,0.479-0.761,0.58-1.199
	c1.547-6.701,6.302-20.563,10.899-33.968c3.362-9.801,6.809-19.855,9.29-27.889c1.894,2.989,4.512,5.772,7.998,8.229
	c-7.94,16.433-22.379,58.452-24.666,65.152c-1.536,1.252-5.281,4.472-10.459,9.979l-4.71-5.673
	C297.96,324.949,301.839,319.917,305.013,315.949z M271.083,372.935c3.414-11.909,11.303-25.495,19.303-37.248l4.196,5.054
	C287.986,348.262,279.792,358.823,271.083,372.935z M305.995,441.319c0.109,0.059,0.367,0.194,0.29,0.603
	c-0.077,0.408-0.366,0.44-0.489,0.454l-2.978,0.331c-1.788,0.199-3.596-0.051-5.263-0.726l-21.842-8.85l4.653-5.3L305.995,441.319z
	 M277.433,422.076c-0.003,0.004-0.005,0.008-0.008,0.012c-0.003,0.003-0.006,0.005-0.008,0.008l-9,10.25
	c-0.642,0.73-0.89,1.726-0.665,2.671c0.224,0.945,0.892,1.725,1.792,2.089l29,11.75c0.029,0.012,0.058,0.015,0.087,0.026
	c0.031,0.012,0.06,0.029,0.092,0.04c0.086,0.029,8.684,2.917,14.284,6.65c2.232,1.488,2.941,3.106,3.143,4.201
	c0.171,0.93-0.007,1.553-0.115,1.789c-0.132,0.085-0.256,0.181-0.373,0.286c-1.449,1.309-4.908,2.867-13.154,2.867
	c-16.738,0-41.517-6.555-50.894-9.729c-1.996-0.675-3.457-2.38-3.825-4.458c-0.083-0.719-0.906-8.543,1.416-15.156
	c1.713-4.879,4.062-11.056,6.548-17.596c1.73-4.551,3.532-9.29,5.282-14.009c10.246-21.091,20.74-37.078,29.624-48.654
	l23.353,23.461C299.089,397.802,277.733,421.742,277.433,422.076z M351.779,329.747c-0.674,0.547-16.597,13.597-24.792,29.986
	c-1.715,3.431-5.09,8.387-9.306,14.025l-23.279-23.387c11.127-13.697,18.944-19.801,19.087-19.911
	c0.474-0.361,0.829-0.856,1.022-1.421c0.179-0.527,18.012-52.938,25.807-67.553c0.752-1.41,0.267-3.162-1.104-3.984
	c-16.397-9.837-11.469-26.098-7.564-34.229c2.632,2.208,5.766,4.439,9.434,6.416c8.703,4.691,17.663,6.509,26.326,6.509
	c11.763,0,22.971-3.355,32.234-7.414C398.238,288.991,352.192,329.389,351.779,329.747z"/>
<g>
</g>
<g>
</g>
<g>
</g>
<g>
</g>
<g>
</g>
<g>
</g>
<g>
</g>
<g>
</g>
<g>
</g>
<g>
</g>
<g>
</g>
<g>
</g>
<g>
</g>
<g>
</g>
<g>
</g>
</svg>
