<svg xmlns="http://www.w3.org/2000/svg" class="icon" style="vertical-align: middle;fill: currentColor;overflow: hidden;" viewBox="0 0 1024 1024" p-id="21827" version="1.1"><path fill="#edf4ff" d="M 502.613 571.392 m -308.224 0 a 308.224 308.224 0 1 0 616.448 0 a 308.224 308.224 0 1 0 -616.448 0 Z" p-id="21828" /><path fill="#fcfeff" d="M 802.133 497.323 a 307.2 307.2 0 0 0 -535.04 -123.904 a 304.811 304.811 0 0 1 123.733 -63.3173 a 307.2 307.2 0 0 1 309.76 497.323 A 308.053 308.053 0 0 0 802.133 497.323 Z" p-id="21829" /><path fill="#d8e3f0" d="M 756.053 747.179 a 308.395 308.395 0 1 1 -428.373 -429.568 a 308.395 308.395 0 0 0 428.373 429.568 Z" p-id="21830" /><path fill="#d8e3f0" d="M 332.629 666.283 m -56.6613 0 a 56.6613 56.6613 0 1 0 113.323 0 a 56.6613 56.6613 0 1 0 -113.323 0 Z" p-id="21831" /><path fill="#d8e3f0" d="M 619.691 463.701 m -49.152 0 a 49.152 49.152 0 1 0 98.304 0 a 49.152 49.152 0 1 0 -98.304 0 Z" p-id="21832" /><path fill="#d8e3f0" d="M 683.008 553.643 m -25.7707 0 a 25.7707 25.7707 0 1 0 51.5413 0 a 25.7707 25.7707 0 1 0 -51.5413 0 Z" p-id="21833" /><path fill="#d8e3f0" d="M 353.621 398.336 m -35.4987 0 a 35.4987 35.4987 0 1 0 70.9973 0 a 35.4987 35.4987 0 1 0 -70.9973 0 Z" p-id="21834" /><path fill="#69baf9" d="M 247.979 397.995 m -84.6507 0 a 84.6507 84.6507 0 1 0 169.301 0 a 84.6507 84.6507 0 1 0 -169.301 0 Z" p-id="21835" /><path fill="#96ddff" d="M 290.133 470.869 a 85.3333 85.3333 0 0 0 -115.712 -116.053 a 83.1147 83.1147 0 0 1 52.5653 -39.0827 a 85.3333 85.3333 0 0 1 63.1467 155.136 Z" p-id="21836" /><path fill="#d8e3f0" d="M 581.632 808.448 m -24.2347 0 a 24.2347 24.2347 0 1 0 48.4693 0 a 24.2347 24.2347 0 1 0 -48.4693 0 Z" p-id="21837" /><path fill="#ffc670" d="M 931.157 237.397 L 802.133 147.285 a 17.0667 17.0667 0 0 0 -27.3067 14.336 v 44.032 a 250.197 250.197 0 0 0 -238.933 176.299 a 402.773 402.773 0 0 1 238.933 -74.9227 v 34.1333 a 17.0667 17.0667 0 0 0 27.3067 14.336 l 129.365 -90.112 a 17.0667 17.0667 0 0 0 -0.341334 -27.9893 Z" p-id="21838" /><path fill="#3d3d63" d="M 419.328 745.472 c -7.68 0 -15.1893 1.36533 -22.528 1.87733 a 17.0667 17.0667 0 0 0 1.024 34.1333 h 1.19467 l 23.552 -2.048 a 17.0667 17.0667 0 1 0 -3.24267 -34.1333 Z M 109.568 415.061 a 17.0667 17.0667 0 0 0 17.0667 -17.0667 a 121.685 121.685 0 0 1 68.2667 -109.397 a 17.0667 17.0667 0 1 0 -14.5067 -30.8907 a 156.16 156.16 0 0 0 -88.576 140.288 a 17.0667 17.0667 0 0 0 17.7493 17.0667 Z M 133.973 521.216 A 24.4053 24.4053 0 1 0 109.568 546.133 a 24.2347 24.2347 0 0 0 24.4053 -24.9173 Z" p-id="21839" /><path fill="#3d3d63" d="M 284.672 240.811 m -24.2347 0 a 24.2347 24.2347 0 1 0 48.4693 0 a 24.2347 24.2347 0 1 0 -48.4693 0 Z" p-id="21840" /><path fill="#3d3d63" d="M 940.885 223.403 l -129.365 -90.112 a 34.1333 34.1333 0 0 0 -54.1013 28.3307 v 27.648 a 265.899 265.899 0 0 0 -107.179 30.0373 a 381.099 381.099 0 0 0 -176.299 -28.8427 a 17.0667 17.0667 0 0 0 2.56 34.1333 a 351.915 351.915 0 0 1 137.557 17.0667 a 244.736 244.736 0 0 0 -20.48 17.0667 a 326.827 326.827 0 0 0 -90.7947 -12.8 a 322.219 322.219 0 0 0 -198.144 68.2667 a 102.4 102.4 0 0 0 -114.517 168.277 a 307.2 307.2 0 0 0 -7.168 29.5253 C 119.467 564.224 90.112 620.544 102.4 670.549 s 65.1947 86.8693 145.749 102.4 A 324.267 324.267 0 0 0 822.272 631.467 c 63.3173 -51.2 93.3547 -108.032 80.7253 -158.891 a 104.619 104.619 0 0 0 -34.1333 -53.4187 a 17.0667 17.0667 0 0 0 -22.1867 24.576 A 73.3867 73.3867 0 0 1 870.4 480.597 c 7.33867 29.696 -8.53333 64.6827 -42.3253 99.328 v -8.53333 a 326.656 326.656 0 0 0 -109.739 -243.371 c 12.9707 -1.70667 25.9413 -3.072 39.0827 -3.584 v 17.0667 a 34.1333 34.1333 0 0 0 54.1013 28.16 l 129.365 -90.112 a 34.1333 34.1333 0 0 0 0 -56.4907 Z m -692.907 106.837 a 68.2667 68.2667 0 1 1 -68.2667 68.2667 a 68.2667 68.2667 0 0 1 68.2667 -68.2667 Z M 135.509 662.357 c -7.168 -29.184 8.192 -64.1707 42.1547 -99.328 v 8.36267 a 324.267 324.267 0 0 0 42.1547 159.573 c -46.7627 -14.1653 -76.8 -38.5707 -84.3093 -68.608 Z m 658.432 -90.9653 a 297.131 297.131 0 0 1 -3.24267 41.1307 a 533.845 533.845 0 0 1 -85.3333 51.2 a 65.7067 65.7067 0 0 0 -116.736 41.472 v 4.77867 c -16.0427 4.94933 -32.4267 9.55733 -48.8107 13.6533 s -31.5733 7.33867 -47.2747 10.4107 a 17.0667 17.0667 0 0 0 3.24267 34.1333 a 9.38667 9.38667 0 0 0 3.072 0 c 17.0667 -3.072 32.9387 -6.656 49.152 -10.752 s 34.1333 -9.216 51.2 -14.5067 a 65.8773 65.8773 0 0 0 119.467 -37.0347 a 67.072 67.072 0 0 0 -1.024 -10.24 a 640.341 640.341 0 0 0 59.392 -34.1333 a 290.133 290.133 0 0 1 -477.867 118.443 c 14.1653 1.19467 28.8427 2.048 44.032 2.21867 a 17.0667 17.0667 0 0 0 17.0667 -17.0667 a 17.0667 17.0667 0 0 0 -17.0667 -17.0667 a 512 512 0 0 1 -77.6533 -6.48533 a 290.133 290.133 0 0 1 -55.9787 -170.667 a 294.059 294.059 0 0 1 12.288 -74.752 a 96.0853 96.0853 0 0 0 26.4533 3.584 a 102.4 102.4 0 0 0 81.7493 -162.304 a 290.133 290.133 0 0 1 237.056 -50.0053 a 268.629 268.629 0 0 0 -47.4453 89.6 a 17.0667 17.0667 0 0 0 16.2133 22.016 a 17.0667 17.0667 0 0 0 10.24 -3.24267 a 360.448 360.448 0 0 1 128.683 -59.5627 a 292.693 292.693 0 0 1 119.125 235.179 Z m -107.52 134.656 a 31.744 31.744 0 1 1 -31.5733 -31.744 a 31.5733 31.5733 0 0 1 31.5733 31.744 Z M 921.6 251.904 L 791.552 341.333 v -34.1333 a 17.0667 17.0667 0 0 0 -17.0667 -17.0667 a 431.957 431.957 0 0 0 -201.216 48.2987 a 231.083 231.083 0 0 1 201.216 -115.371 a 17.0667 17.0667 0 0 0 17.0667 -17.0667 V 161.451 L 921.6 251.392 Z" p-id="21841" /></svg>